<svg id="Layer_1" height="512" viewBox="0 0 32 32" width="512" xmlns="http://www.w3.org/2000/svg" data-name="Layer 1"><path d="m0 5.503h32v20.993h-32z" fill="#fff"/><path d="m14.649 5.503v8.838h-14.649v3.742h14.649v8.414h2.967v-8.414h14.384v-3.742h-14.384v-8.838z" fill="#bd0034"/><path d="m13.659 5.503h-11.159l11.159 7.057z" fill="#1a237b"/><path d="m0 13.094h7.865l-7.865-4.987z" fill="#1a237b"/><path d="m0 5.5v1.228l9.439 5.893h2.318s-9.303-5.762-11.513-7.121z" fill="#bd0034"/><path d="m13.659 26.497h-11.159l11.159-7.057z" fill="#1a237b"/><path d="m0 18.906h7.865l-7.865 4.987z" fill="#1a237b"/><path d="m0 26.5v-1.228l9.439-5.893h2.318s-9.303 5.762-11.513 7.121z" fill="#bd0034"/><path d="m18.341 5.503h11.159l-11.159 7.057z" fill="#1a237b"/><path d="m32 13.094h-7.865l7.865-4.987z" fill="#1a237b"/><path d="m32 5.5v1.228l-9.439 5.893h-2.318s9.3-5.762 11.513-7.118z" fill="#bd0034"/><path d="m18.341 26.497h11.159l-11.159-7.057z" fill="#1a237b"/><path d="m32 18.906h-7.865l7.865 4.987z" fill="#1a237b"/><path d="m32 26.5v-1.228l-9.439-5.893h-2.318s9.3 5.762 11.513 7.118z" fill="#bd0034"/></svg>