<?xml version="1.0" encoding="utf-8"?>
<!-- Generator: Adobe Illustrator 17.0.0, SVG Export Plug-In . SVG Version: 6.00 Build 0)  -->
<!DOCTYPE svg PUBLIC "-//W3C//DTD SVG 1.1//EN" "http://www.w3.org/Graphics/SVG/1.1/DTD/svg11.dtd">
<svg version="1.1" id="Layer_1" xmlns="http://www.w3.org/2000/svg" xmlns:xlink="http://www.w3.org/1999/xlink" x="0px" y="0px"
	 width="640px" height="480px" viewBox="-187 -96 640 480" enable-background="new -187 -96 640 480" xml:space="preserve">
<g>
	<circle fill="#2D404E" cx="133" cy="144" r="205"/>
	<path fill="#48B19B" d="M338,144c0-41.131-12.111-79.43-32.964-111.529c0,0-11.695,17.084-9.497,28.065
		c2.196,10.983,15.099,11.821,13.773,19.877s-10.843-2.305-22.56,18.925c-11.715,21.232-5.855,50.526,10.982,52.719
		C314.572,154.248,338,144,338,144z"/>
	<path fill="#48B19B" d="M186.837-53.857c23.861,6.477,45.992,17.156,65.55,31.191c0,0-23.77-3.921-32.775,4.13
		c-9.004,8.053-22.136,27.092-32.775,0C176.198-45.626,186.837-53.857,186.837-53.857z"/>
	<path fill="#48B19B" d="M-21.135,8.843C16.436-33.97,71.56-61,133-61c0,0-13.908,8.421,12.449,22.697
		c26.358,14.278,14.276,20.866,8.785,25.259c-5.49,4.393-15.014-8.785-21.234-17.57c-6.221-8.787-32.938-22.33-53.439-15.007
		C59.06-38.297,41.492-32.888,44.418-26.075c2.925,6.811,38.068-6.362,51.247-5.633c13.178,0.73,8.785,8.782-3.659,18.301
		C79.561-3.888,78.094,7.825,91.273,15.145c13.178,7.324,29.281,8.057,32.947,3.664c3.663-4.393-6.59-32.947,18.304-20.502
		s45.395,19.772,24.894,38.073c-20.502,18.299-43.928,38.807-44.662,50.516c-0.734,11.711,7.324,21.237,2.931,21.965
		c-4.393,0.729-8.425-4.757-11.352-8.787c-2.925-4.027-16.473-5.489-23.062-2.929c-6.59,2.56-19.038,12.445-12.081,21.964
		c6.958,9.52,16.468,5.122,25.989,9.516c9.519,4.393,18.396,21.113,16.573,24.892c-1.823,3.777-9.937-1.006-16.573-13.909
		c-6.638-12.905-19.087-4.393-27.846-6.59c-8.76-2.196-15.349-3.66-24.136-19.035C44.414,98.61,26.224,94.308,18.791,85.432
		C-2.501,60.007-0.978,40.771-5.37,31.986C-9.763,23.198-21.135,8.843-21.135,8.843z"/>
	<path fill="#48B19B" d="M152.767,146.929c0,0,21.965,2.193,32.947,11.713c10.982,9.519,12.449,13.182,29.287,16.841
		c16.838,3.658,24.161,13.174,13.178,31.48c-10.982,18.303-30.753,47.59-40.269,56.377c-9.515,8.787-21.23,16.108-25.623,30.75
		c-4.392,14.641-5.859,23.421,3.66,29.283c0,0-5.122,12.448-16.837-3.66c-11.716-16.109-2.197-35.142,0-46.125
		c2.196-10.981,8.052-43.924,4.391-51.982c-3.658-8.055-20.501-13.182-24.894-30.018
		C124.214,174.751,131.902,141.984,152.767,146.929z"/>
	<path opacity="0.6" fill="#253744" enable-background="new    " d="M-11.957-0.955c80.058-80.06,209.854-80.058,289.913,0
		c80.059,80.056,80.059,209.854,0.001,289.912c0,0,93.009-122.992-38.672-254.673C107.602-97.398-11.957-0.955-11.957-0.955z"/>
</g>
</svg>
