<svg width="20" height="20" viewBox="0 0 20 20" fill="none" xmlns="http://www.w3.org/2000/svg">
<path d="M12.17 7.08314C12.17 6.83319 12.17 6.66656 12.17 6.45827C12.0033 4.95857 13.2531 3.91711 14.6278 4.20872C16.4608 4.6253 18.0021 5.50013 19.1686 6.95816C19.5435 7.4164 19.8351 7.9163 19.9601 8.49952C20.1267 9.08273 19.7518 9.70761 19.2102 9.87424C18.6687 10.0825 18.0438 9.79092 17.7938 9.20771C17.4606 8.4162 16.919 7.83299 16.2525 7.33309C16.2108 7.29143 16.1692 7.20811 16.0859 7.24977C16.0442 7.29143 16.0442 7.37475 16.0442 7.4164C15.9609 8.87444 15.6276 10.2908 15.0027 11.6239C14.7944 12.1238 14.5028 12.582 14.1696 12.9986C13.2114 14.165 11.3785 13.9151 10.7953 12.5404C10.7536 12.4154 10.7119 12.4154 10.587 12.4154C9.4622 12.4987 8.37908 12.832 7.29597 13.2486C6.37949 13.6235 5.50466 14.0401 4.75482 14.6233C4.33823 14.9149 3.79668 14.9149 3.33844 14.6233C2.92185 14.3733 2.6719 13.8318 2.75522 13.3319C2.83854 12.9153 3.04683 12.582 3.3801 12.3737C5.00477 11.249 6.79607 10.4575 8.71235 9.99921C9.58717 9.79092 10.462 9.70761 11.3368 9.70761C11.4618 9.70761 11.5451 9.66595 11.5868 9.54097C11.8367 8.9161 12.0033 8.29123 12.045 7.66635C12.1283 7.49972 12.1283 7.24977 12.17 7.08314Z" fill="#057008"/>
<path d="M9.54541 14.4568C9.54541 14.0402 9.58707 13.6652 9.71204 13.2903C9.7537 13.207 9.7537 13.1653 9.87868 13.1653C10.0453 13.1653 10.1703 13.1237 10.3369 13.082C10.4202 13.082 10.4619 13.082 10.5035 13.1653C10.8368 13.7486 11.3784 14.0818 12.0032 14.2901C12.1282 14.3318 12.1699 14.3734 12.2115 14.4984C12.2949 15.4149 12.7948 16.1231 13.5446 16.6646C13.8779 16.9146 14.1278 17.2062 14.1695 17.5811C14.2944 18.2893 13.7112 18.9975 13.003 19.0808C12.5031 19.1225 12.1282 18.8725 11.795 18.6226C10.7535 17.7894 10.0037 16.748 9.71204 15.4149C9.58707 15.0816 9.54541 14.7484 9.54541 14.4568Z" fill="#057008"/>
<path d="M12.4615 0.00130984C13.5446 -0.0403484 14.4611 0.917791 14.4194 2.0009C14.3778 3.08402 13.503 3.95884 12.4199 3.95884C11.3784 3.95884 10.4619 3.04236 10.4619 1.95925C10.5036 0.876133 11.3784 0.00130984 12.4615 0.00130984Z" fill="#057008"/>
<path d="M2.3802 6.75C2.46352 6.83332 2.50518 6.95829 2.54684 7.04161C2.92176 7.54151 3.42166 7.83311 4.04653 7.99975C4.12985 7.99975 4.17151 8.0414 4.21317 8.12472C4.46312 8.74959 4.29648 9.33281 3.8799 9.87437C3.83824 9.95768 3.75493 9.91602 3.71327 9.91602C2.92176 9.62442 2.42186 9.08286 2.21357 8.2497C2.13025 7.70814 2.17191 7.2499 2.3802 6.75Z" fill="#057008"/>
<path d="M4.58789 9.91598C4.75452 9.62437 4.8795 9.33276 4.92116 8.9995C4.96281 8.62457 4.92116 8.29131 4.79618 7.91638C4.75452 7.83307 4.75452 7.79141 4.83784 7.70809C5.29608 7.20819 5.8793 7.08322 6.50417 7.12488C6.58749 7.12488 6.58749 7.20819 6.58749 7.24985C6.87909 8.24965 6.21256 9.45774 5.17111 9.83266C5.00447 9.87432 4.83784 9.95764 4.58789 9.91598Z" fill="#057008"/>
<path d="M6.29602 6.50004C5.50452 6.45838 4.87964 6.79165 4.37974 7.33321C4.29643 7.41652 4.21311 7.37486 4.17145 7.37486C3.54658 7.20823 3.13 6.83331 2.88005 6.29175C2.83839 6.20843 2.88005 6.16678 2.92171 6.12512C3.33829 5.75019 3.79653 5.5419 4.37974 5.50024C5.17125 5.50024 5.79612 5.83351 6.29602 6.50004Z" fill="#057008"/>
<path d="M8.79588 7.41653C8.79588 7.70813 8.71257 7.87477 8.50428 7.87477C8.33764 7.87477 8.17101 7.70813 8.17101 7.49984C8.08769 6.66668 7.79609 5.95849 7.29619 5.29196C7.25453 5.2503 7.25453 5.2503 7.21287 5.20864C7.0879 5.04201 7.0879 4.83372 7.21287 4.7504C7.33785 4.62543 7.54614 4.66708 7.67111 4.83372C7.92106 5.12532 8.17101 5.45859 8.33764 5.83351C8.62925 6.33341 8.75423 6.87497 8.79588 7.41653Z" fill="#057008"/>
<path d="M2.29697 11.4156C2.29697 11.7072 2.08868 11.8321 1.83873 11.7072C1.13054 11.3322 0.505666 10.7907 0.0890836 10.1242C-0.0358911 9.91586 -0.0358911 9.74923 0.130742 9.62425C0.297375 9.49928 0.464008 9.54094 0.588982 9.74923C0.963906 10.2908 1.46381 10.749 2.04702 11.0406C2.25531 11.1656 2.29697 11.2489 2.29697 11.4156Z" fill="#057008"/>
</svg>
