<svg width="25" height="25" viewBox="0 0 25 25" fill="none" xmlns="http://www.w3.org/2000/svg">
<path d="M9.69792 15.3125L11.2604 16.875L15.4271 12.7084" stroke="#032D4B" stroke-width="1.5" stroke-linecap="round" stroke-linejoin="round"/>
<path d="M10.4167 6.25004H14.5833C16.6667 6.25004 16.6667 5.20837 16.6667 4.16671C16.6667 2.08337 15.625 2.08337 14.5833 2.08337H10.4167C9.37499 2.08337 8.33333 2.08337 8.33333 4.16671C8.33333 6.25004 9.37499 6.25004 10.4167 6.25004Z" stroke="#032D4B" stroke-width="1.5" stroke-miterlimit="10" stroke-linecap="round" stroke-linejoin="round"/>
<path d="M16.6667 4.1875C20.1354 4.375 21.875 5.65625 21.875 10.4167V16.6667C21.875 20.8333 20.8333 22.9167 15.625 22.9167H9.375C4.16667 22.9167 3.125 20.8333 3.125 16.6667V10.4167C3.125 5.66667 4.86458 4.375 8.33333 4.1875" stroke="#032D4B" stroke-width="1.5" stroke-miterlimit="10" stroke-linecap="round" stroke-linejoin="round"/>
</svg>
