<svg width="25" height="23" viewBox="0 0 25 23" fill="none" xmlns="http://www.w3.org/2000/svg">
<path d="M25 11.2323C25 11.4455 24.9921 11.6509 24.9842 11.8642C24.9763 12.0379 24.9605 12.2117 24.9447 12.3776C24.9052 12.7567 24.85 13.128 24.7789 13.4913C24.7473 13.6651 24.7078 13.8389 24.6604 14.0048C24.4787 14.7157 24.2338 15.395 23.9179 16.0427C23.8389 16.2165 23.752 16.3902 23.6651 16.5561C23.4518 16.959 23.207 17.3381 22.9463 17.7094C22.8278 17.8831 22.7014 18.0569 22.5593 18.2228C22.2512 18.6177 21.9116 18.989 21.5482 19.3365C21.3586 19.5182 21.1691 19.692 20.9716 19.85C20.5056 20.237 20.0158 20.5925 19.4945 20.8926C19.1785 21.0822 18.8547 21.256 18.5229 21.406C17.0774 22.0854 15.466 22.4645 13.7678 22.4645H11.2164V0C11.2164 0 11.9747 0 13.7678 0C15.6082 0 17.346 0.450237 18.8863 1.24013C19.1943 1.39021 19.4945 1.56398 19.7867 1.75356C20.3081 2.07741 20.7978 2.45656 21.2559 2.8673C21.4455 3.02528 21.6193 3.19906 21.7931 3.38073C22.3697 3.97315 22.8831 4.62876 23.3255 5.33177C23.4281 5.49764 23.5308 5.67142 23.6256 5.8452C23.989 6.5087 24.2891 7.21171 24.5103 7.9542C24.5577 8.12798 24.613 8.29386 24.6525 8.46763C24.7947 9.01266 24.8894 9.57348 24.9447 10.1501C24.9684 10.3239 24.9763 10.4898 24.9842 10.6635C25 10.8531 25 11.0427 25 11.2323Z" fill="#CC9005"/>
<path d="M24.9843 11.864C24.9764 12.0378 24.9606 12.2116 24.9448 12.3774H21.8089V11.864H24.9843Z" fill="#A97A05"/>
<path d="M24.771 13.4912C24.7394 13.665 24.6999 13.8388 24.6525 14.0046H20.7979V13.4912H24.771Z" fill="#A97A05"/>
<path d="M23.9179 16.0344C23.8389 16.2082 23.7521 16.382 23.6652 16.5479H19.8737V16.0344H23.9179Z" fill="#A97A05"/>
<path d="M22.9464 17.7021C22.8279 17.8759 22.7015 18.0497 22.5594 18.2156H18.6178V17.7021H22.9464Z" fill="#A97A05"/>
<path d="M21.5482 19.3286C21.3586 19.5103 21.169 19.6841 20.9716 19.842H17.2828V19.3286H21.5482Z" fill="#A97A05"/>
<path d="M19.5025 20.8923C19.1865 21.0819 18.8626 21.2557 18.5309 21.4058H15.3634V20.8923H19.5025Z" fill="#A97A05"/>
<path d="M24.9922 10.6555H21.5957V10.1421H24.9448C24.9685 10.3159 24.9843 10.4817 24.9922 10.6555Z" fill="#A97A05"/>
<path d="M24.6604 8.45947H21.2086V7.94604H24.5103C24.5656 8.11982 24.613 8.2857 24.6604 8.45947Z" fill="#A97A05"/>
<path d="M23.6256 5.83692H20.1659V5.32349H23.3255C23.4281 5.49726 23.5308 5.66314 23.6256 5.83692Z" fill="#A97A05"/>
<path d="M21.801 3.38086H17.9543V2.86743H21.2639C21.4456 3.02541 21.6272 3.19919 21.801 3.38086Z" fill="#A97A05"/>
<path d="M19.7947 1.75366H16.0664V1.24023H18.8943C19.2023 1.39031 19.5025 1.56409 19.7947 1.75366Z" fill="#A97A05"/>
<path d="M22.4566 11.2322C22.4566 17.4328 17.4329 22.4644 11.2323 22.4644C5.03164 22.4644 3.05176e-05 17.4407 3.05176e-05 11.2322C3.05176e-05 5.03152 5.02374 0.0078125 11.2323 0.0078125C17.4408 0.0078125 22.4566 5.03152 22.4566 11.2322Z" fill="#FFCF00"/>
<path d="M20.5451 11.2323C20.5451 16.3824 16.3745 20.5531 11.2244 20.5531C6.07431 20.5531 1.90369 16.3824 1.90369 11.2323C1.90369 6.08225 6.07431 1.91162 11.2244 1.91162C16.3745 1.91162 20.5451 6.08225 20.5451 11.2323Z" fill="#FBBB00"/>
<path d="M12.0064 19.7712C6.85631 19.7712 2.68569 15.6006 2.68569 10.4505C2.68569 8.0729 3.57826 5.9086 5.03956 4.26562C3.12012 5.97179 1.91159 8.45995 1.91159 11.2325C1.91159 16.3826 6.08222 20.5532 11.2323 20.5532C14.0048 20.5532 16.493 19.3446 18.1991 17.4173C16.5483 18.8865 14.384 19.7712 12.0064 19.7712Z" fill="#C47F0B"/>
<path d="M14.6503 13.6878C14.6394 13.7862 14.5847 13.819 14.541 13.8737C13.3161 15.0002 12.1021 16.1376 10.8772 17.2641C10.7678 17.3625 10.6913 17.3625 10.5928 17.2531C10.2647 16.8922 9.94759 16.5423 9.60855 16.1923C9.48825 16.072 9.48825 15.9954 9.61949 15.8751C10.3741 15.1752 11.1287 14.4752 11.8834 13.7753C12.0255 13.6441 12.0365 13.5675 11.8943 13.4363C11.5553 13.0863 11.2162 12.7363 10.8881 12.3645C10.7678 12.2332 10.7022 12.2442 10.571 12.3645C9.82728 13.0754 9.07266 13.7644 8.32897 14.4643C8.18679 14.5955 8.0993 14.6065 7.96806 14.4534C7.67277 14.1034 7.35561 13.7753 7.03844 13.4472C6.9072 13.316 6.91814 13.2285 7.04938 13.1191C8.14304 12.0911 9.23671 11.074 10.3413 10.0569C10.4616 9.94748 10.5928 9.82718 10.7132 9.70688C10.8116 9.60845 10.8772 9.60845 10.9756 9.70688C12.1568 10.9974 13.3489 12.277 14.541 13.5566C14.5847 13.6003 14.6175 13.655 14.6503 13.6878Z" fill="#CC9005"/>
<path d="M13.2286 10.8552C13.152 10.8333 13.1083 10.7677 13.0536 10.713C12.3864 10.0021 11.7193 9.29127 11.0522 8.56945C10.91 8.41634 10.8334 8.42727 10.6913 8.55851C9.96945 9.24752 9.22576 9.91466 8.50395 10.6146C8.32896 10.7786 8.23053 10.7786 8.07742 10.6037C7.78213 10.2646 7.4759 9.93653 7.15874 9.60843C7.04938 9.48813 7.0275 9.41157 7.15874 9.29127C8.37271 8.17573 9.57574 7.04926 10.7897 5.92279C10.9319 5.79155 11.0084 5.79155 11.1397 5.93372C11.8068 6.65554 12.4849 7.37736 13.152 8.09918C13.2833 8.24135 13.3598 8.25229 13.5129 8.11011C14.2129 7.44298 14.9347 6.78678 15.6346 6.11965C15.7549 5.99934 15.8315 6.02122 15.9299 6.13058C16.258 6.48056 16.5861 6.84146 16.9142 7.1805C17.0236 7.28987 17.0236 7.36642 16.9033 7.47579C15.7331 8.55851 14.5628 9.64124 13.3926 10.7349C13.3598 10.7896 13.3051 10.8443 13.2286 10.8552Z" fill="#CC9005"/>
<path d="M5.56198 14.8259C5.56198 14.29 6.01038 13.8525 6.54628 13.8525C7.09311 13.8525 7.54151 14.3009 7.55245 14.8368C7.55245 15.3727 7.09311 15.843 6.56815 15.843C6.01038 15.843 5.56198 15.3837 5.56198 14.8259Z" fill="#CC9005"/>
<path d="M12.8348 6.28383C12.288 6.28383 11.8396 5.83543 11.8505 5.29953C11.8505 4.7527 12.2989 4.32617 12.8567 4.32617C13.4035 4.32617 13.841 4.77457 13.841 5.3214C13.83 5.86824 13.3926 6.28383 12.8348 6.28383Z" fill="#CC9005"/>
</svg>
