<svg width="20" height="20" viewBox="0 0 20 20" fill="none" xmlns="http://www.w3.org/2000/svg">
<path d="M7.56946 11.5625C7.56946 12.8958 8.66668 13.9931 10 13.9931C11.3333 13.9931 12.4306 12.8958 12.4306 11.5625" stroke="#032D4B" stroke-width="1.5" stroke-miterlimit="10" stroke-linecap="round" stroke-linejoin="round"/>
<path d="M7.78476 3.05566L5.27087 5.5765" stroke="#032D4B" stroke-width="1.5" stroke-miterlimit="10" stroke-linecap="round" stroke-linejoin="round"/>
<path d="M12.2153 3.05566L14.7292 5.5765" stroke="#032D4B" stroke-width="1.5" stroke-miterlimit="10" stroke-linecap="round" stroke-linejoin="round"/>
<path d="M3.0556 7.11814C3.0556 5.83341 3.7431 5.72925 4.59727 5.72925H15.4028C16.257 5.72925 16.9445 5.83341 16.9445 7.11814C16.9445 8.61119 16.257 8.50703 15.4028 8.50703H4.59727C3.7431 8.50703 3.0556 8.61119 3.0556 7.11814Z" stroke="#032D4B" stroke-width="1.5"/>
<path d="M4.09723 8.61108L5.0764 14.6111C5.29862 15.9583 5.83334 16.9444 7.81945 16.9444H12.007C14.1667 16.9444 14.4861 16 14.7361 14.6944L15.9028 8.61108" stroke="#032D4B" stroke-width="1.5" stroke-linecap="round"/>
</svg>
