<svg width="31" height="32" viewBox="0 0 31 32" fill="none" xmlns="http://www.w3.org/2000/svg">
<g filter="url(#filter0_d_2314_1455)">
<path d="M15.6562 17.1875V19.375" stroke="#FF0100" stroke-width="1.5" stroke-linecap="round" stroke-linejoin="round"/>
<path d="M10.4479 22.9165H20.8646V21.8748C20.8646 20.729 19.9271 19.7915 18.7812 19.7915H12.5312C11.3854 19.7915 10.4479 20.729 10.4479 21.8748V22.9165V22.9165Z" stroke="#FF0100" stroke-width="1.5" stroke-miterlimit="10"/>
<path d="M9.40625 22.9165H21.9062" stroke="#FF0100" stroke-width="1.5" stroke-linecap="round" stroke-linejoin="round"/>
<path d="M15.5 16.6668C11.4688 16.6668 8.20834 13.4064 8.20834 9.37516V6.25016C8.20834 3.94808 10.0729 2.0835 12.375 2.0835H18.625C20.9271 2.0835 22.7917 3.94808 22.7917 6.25016V9.37516C22.7917 13.4064 19.5313 16.6668 15.5 16.6668Z" stroke="#FF0100" stroke-width="1.5" stroke-linecap="round" stroke-linejoin="round"/>
<path d="M8.69792 12.1354C7.91667 11.8854 7.22917 11.4271 6.6875 10.8854C5.75 9.84375 5.125 8.59375 5.125 7.13542C5.125 5.67708 6.27083 4.53125 7.72917 4.53125H8.40625C8.19792 5.01042 8.09375 5.54167 8.09375 6.09375V9.21875C8.09375 10.2604 8.3125 11.2396 8.69792 12.1354Z" stroke="#FF0100" stroke-width="1.5" stroke-linecap="round" stroke-linejoin="round"/>
<path d="M22.3021 12.1354C23.0833 11.8854 23.7708 11.4271 24.3125 10.8854C25.25 9.84375 25.875 8.59375 25.875 7.13542C25.875 5.67708 24.7291 4.53125 23.2708 4.53125H22.5937C22.8021 5.01042 22.9062 5.54167 22.9062 6.09375V9.21875C22.9062 10.2604 22.6875 11.2396 22.3021 12.1354Z" stroke="#FF0100" stroke-width="1.5" stroke-linecap="round" stroke-linejoin="round"/>
</g>
<defs>
<filter id="filter0_d_2314_1455" x="-1" y="0" width="33" height="33" filterUnits="userSpaceOnUse" color-interpolation-filters="sRGB">
<feFlood flood-opacity="0" result="BackgroundImageFix"/>
<feColorMatrix in="SourceAlpha" type="matrix" values="0 0 0 0 0 0 0 0 0 0 0 0 0 0 0 0 0 0 127 0" result="hardAlpha"/>
<feOffset dy="4"/>
<feGaussianBlur stdDeviation="2"/>
<feComposite in2="hardAlpha" operator="out"/>
<feColorMatrix type="matrix" values="0 0 0 0 0 0 0 0 0 0 0 0 0 0 0 0 0 0 0.25 0"/>
<feBlend mode="normal" in2="BackgroundImageFix" result="effect1_dropShadow_2314_1455"/>
<feBlend mode="normal" in="SourceGraphic" in2="effect1_dropShadow_2314_1455" result="shape"/>
</filter>
</defs>
</svg>
