<svg width="25" height="25" viewBox="0 0 25 25" fill="none" xmlns="http://www.w3.org/2000/svg">
<path d="M12.6562 17.1875V19.375" stroke="#032D4B" stroke-width="1.5" stroke-linecap="round" stroke-linejoin="round"/>
<path d="M7.448 22.9166H17.8647V21.875C17.8647 20.7291 16.9272 19.7916 15.7813 19.7916H9.53133C8.3855 19.7916 7.448 20.7291 7.448 21.875V22.9166V22.9166Z" stroke="#032D4B" stroke-width="1.5" stroke-miterlimit="10"/>
<path d="M6.40625 22.9166H18.9062" stroke="#032D4B" stroke-width="1.5" stroke-linecap="round" stroke-linejoin="round"/>
<path d="M12.4999 16.6667C8.46867 16.6667 5.20825 13.4063 5.20825 9.37504V6.25004C5.20825 3.94796 7.07284 2.08337 9.37492 2.08337H15.6249C17.927 2.08337 19.7916 3.94796 19.7916 6.25004V9.37504C19.7916 13.4063 16.5312 16.6667 12.4999 16.6667Z" stroke="#032D4B" stroke-width="1.5" stroke-linecap="round" stroke-linejoin="round"/>
<path d="M5.69792 12.1354C4.91667 11.8854 4.22917 11.4271 3.6875 10.8854C2.75 9.84375 2.125 8.59375 2.125 7.13542C2.125 5.67708 3.27083 4.53125 4.72917 4.53125H5.40625C5.19792 5.01042 5.09375 5.54167 5.09375 6.09375V9.21875C5.09375 10.2604 5.3125 11.2396 5.69792 12.1354Z" stroke="#032D4B" stroke-width="1.5" stroke-linecap="round" stroke-linejoin="round"/>
<path d="M19.302 12.1354C20.0833 11.8854 20.7708 11.4271 21.3124 10.8854C22.2499 9.84375 22.8749 8.59375 22.8749 7.13542C22.8749 5.67708 21.7291 4.53125 20.2708 4.53125H19.5937C19.802 5.01042 19.9062 5.54167 19.9062 6.09375V9.21875C19.9062 10.2604 19.6874 11.2396 19.302 12.1354Z" stroke="#032D4B" stroke-width="1.5" stroke-linecap="round" stroke-linejoin="round"/>
</svg>
