<svg width="20" height="20" viewBox="0 0 20 20" fill="none" xmlns="http://www.w3.org/2000/svg">
<path d="M13.0082 4.58333V13.05C13.0082 13.3833 12.9082 13.7083 12.7248 13.9833L10.4499 17.3667C10.0915 17.9083 9.19985 18.2917 8.44152 18.0083C7.62485 17.7333 7.08318 16.8167 7.25818 16L7.69152 13.275C7.72485 13.025 7.65818 12.8 7.51652 12.625C7.37485 12.4667 7.16652 12.3667 6.94152 12.3667H3.51652C2.85818 12.3667 2.29152 12.1 1.95818 11.6333C1.64152 11.1833 1.58318 10.6 1.79152 10.0083L3.84152 3.76666C4.09985 2.73333 5.22485 1.89166 6.34152 1.89166H9.59152C10.1498 1.89166 10.9332 2.08333 11.2915 2.44166L12.3582 3.26666C12.7665 3.58333 13.0082 4.06666 13.0082 4.58333Z" fill="#CC0000"/>
<path d="M15.6585 14.675H16.5168C17.8085 14.675 18.3335 14.175 18.3335 12.9416V4.56665C18.3335 3.33331 17.8085 2.83331 16.5168 2.83331H15.6585C14.3668 2.83331 13.8418 3.33331 13.8418 4.56665V12.95C13.8418 14.175 14.3668 14.675 15.6585 14.675Z" fill="#CC0000"/>
</svg>
