<svg width="25" height="25" viewBox="0 0 25 25" fill="none" xmlns="http://www.w3.org/2000/svg">
<path d="M13.2762 24.9898C12.7531 24.9898 12.2352 24.9898 11.7121 24.9898C11.6598 24.9428 11.5918 24.948 11.5291 24.9428C9.97546 24.8434 8.50032 24.4354 7.09842 23.7658C5.05835 22.7876 3.41059 21.3439 2.13947 19.4764C1.08281 17.9228 0.413246 16.2175 0.141236 14.3553C0.0889265 13.9944 0.0470787 13.6334 0 13.2725C0 12.7337 0 12.2001 0 11.6613C0.0732335 11.3789 0.0627716 11.0807 0.104619 10.7982C0.282472 9.60034 0.606792 8.44952 1.10897 7.34579C2.12377 5.1174 3.65645 3.33887 5.70699 2.00497C7.50121 0.838467 9.46282 0.174134 11.6075 0.032898C12.7688 -0.0455665 13.9144 0.0119742 15.0443 0.252599C17.3825 0.749541 19.433 1.82189 21.154 3.49057C23.5132 5.7765 24.7791 8.57507 24.9779 11.8497C25.0773 13.5026 24.8419 15.119 24.2717 16.6778C23.1889 19.649 21.2587 21.9036 18.5019 23.4467C17.2047 24.1738 15.808 24.6394 14.3329 24.8486C13.9824 24.8957 13.6319 24.9428 13.2762 24.9898ZM12.9362 5.7085C12.9362 6.32052 12.9466 6.92731 12.931 7.53934C12.9257 7.73288 12.9937 7.84796 13.1402 7.96828C14.3799 8.9517 15.6197 9.94035 16.8542 10.9342C17.0006 11.0545 17.121 11.0702 17.2883 11.0179C18.5752 10.5838 19.8672 10.1496 21.1593 9.72065C21.2743 9.68403 21.3214 9.62649 21.3476 9.50618C21.6091 8.37629 21.8811 7.25163 22.1531 6.12698C22.1793 6.02759 22.1584 5.95958 22.1008 5.88112C20.8873 4.14444 19.3232 2.821 17.4034 1.92128C17.3093 1.87943 17.2413 1.88466 17.1523 1.92128C15.8132 2.46007 14.4741 2.99363 13.135 3.52195C12.978 3.58473 12.9362 3.66842 12.9362 3.83058C12.9414 4.4583 12.9362 5.08601 12.9362 5.7085ZM12.0574 5.7085C12.0574 5.07555 12.0574 4.43737 12.0574 3.80443C12.0574 3.67888 12.0417 3.59519 11.9005 3.54288C10.5352 3.00932 9.17512 2.47053 7.80983 1.92651C7.71568 1.88989 7.64244 1.89512 7.55875 1.93697C5.64945 2.8367 4.10108 4.16013 2.89272 5.89158C2.84042 5.96482 2.82995 6.02759 2.85088 6.11651C3.12289 7.2464 3.38967 8.37106 3.65122 9.50618C3.67737 9.62649 3.72445 9.68403 3.83953 9.72065C5.1525 10.1548 6.46548 10.589 7.77845 11.0284C7.89876 11.0702 7.97723 11.0545 8.08185 10.9709C9.34774 9.95081 10.6189 8.93601 11.8952 7.93166C12.0155 7.83227 12.0626 7.73811 12.0574 7.58118C12.0521 6.9587 12.0574 6.33098 12.0574 5.7085ZM6.75841 19.513C6.88395 19.5549 6.93103 19.4502 6.98857 19.377C7.49075 18.7075 7.97199 18.0222 8.50555 17.3788C8.79849 17.0231 8.88218 16.7145 8.75664 16.2541C8.37478 14.8784 8.05569 13.4869 7.71045 12.1007C7.68952 12.0066 7.65291 11.9333 7.53782 11.8915C6.21962 11.4573 4.90142 11.0179 3.58321 10.5733C3.46813 10.5367 3.41059 10.5576 3.33736 10.6465C2.55271 11.5881 1.76807 12.5297 0.978191 13.4765C0.931112 13.534 0.889265 13.5863 0.899727 13.67C0.931112 13.895 0.946805 14.1199 0.988653 14.3448C1.26066 15.8723 1.7733 17.3108 2.59456 18.6342C2.71487 18.8278 2.85611 18.9062 3.07058 18.9376C3.76107 19.037 4.44632 19.1521 5.13158 19.2619C5.67037 19.3456 6.21439 19.4293 6.75841 19.513ZM24.0938 13.691C24.1357 13.5759 24.0677 13.5236 24.0154 13.4608C23.2412 12.5297 22.4618 11.6038 21.6876 10.6727C21.5934 10.5628 21.515 10.5419 21.379 10.589C20.0921 11.0232 18.8053 11.4573 17.5133 11.881C17.3773 11.9281 17.3197 12.0014 17.2883 12.1269C16.9117 13.6386 16.5403 15.1556 16.1532 16.6621C16.1218 16.7929 16.1323 16.8871 16.216 16.9917C16.828 17.792 17.4348 18.5976 18.0416 19.4032C18.1253 19.513 18.2038 19.5339 18.3293 19.5078C18.5909 19.4555 18.8576 19.4189 19.1192 19.377C20.1183 19.2149 21.1122 19.0527 22.1113 18.8958C22.2212 18.8801 22.2787 18.8278 22.3362 18.7388C23.3197 17.1905 23.9003 15.5009 24.0938 13.691ZM12.5072 17.3945C11.5971 17.3945 10.6869 17.3997 9.77668 17.3945C9.65114 17.3945 9.56744 17.4259 9.48898 17.5305C8.91357 18.3047 8.33293 19.0841 7.74706 19.853C7.63721 19.9995 7.63198 20.0937 7.7366 20.2506C8.48986 21.4171 9.23266 22.5888 9.98069 23.7606C10.0382 23.8547 10.1062 23.9018 10.2265 23.9227C11.8586 24.2627 13.4802 24.2104 15.1018 23.8495C15.1907 23.8286 15.2797 23.8076 15.3372 23.703C16.0015 22.5313 16.6711 21.3596 17.3407 20.193C17.4034 20.078 17.393 20.01 17.3145 19.9158C16.7129 19.1259 16.1166 18.3361 15.5203 17.5462C15.4366 17.4311 15.3372 17.3892 15.1907 17.3892C14.2962 17.3997 13.4017 17.3945 12.5072 17.3945Z" fill="#FF0100"/>
</svg>
