<svg width="22" height="22" viewBox="0 0 22 22" fill="none" xmlns="http://www.w3.org/2000/svg">
<path fill-rule="evenodd" clip-rule="evenodd" d="M11 1C5.47783 1 1 5.47739 1 11C1 16.5226 5.47783 21 11 21C16.5222 21 21 16.5226 21 11C21 5.47739 16.5222 1 11 1Z" fill="#7FCA8C" stroke="#7FCA8C" stroke-width="1.6" stroke-linecap="round" stroke-linejoin="round"/>
<path fill-rule="evenodd" clip-rule="evenodd" d="M8.26548 15.2257L6.56592 9.98135L11.0116 6.74048L15.4581 9.98135L13.7603 15.2257H8.26548Z" stroke="white" stroke-linecap="round" stroke-linejoin="round"/>
<path d="M14.7989 1.77734L11.0111 3.39343L7.22412 1.77734" stroke="white" stroke-linecap="round" stroke-linejoin="round"/>
<path d="M3.45469 4.52441L3.81861 8.63876L1.11426 11.7518" stroke="white" stroke-linecap="round" stroke-linejoin="round"/>
<path d="M2.55469 16.1985L6.56643 17.1224L8.68338 20.6641" stroke="white" stroke-linecap="round" stroke-linejoin="round"/>
<path d="M13.3423 20.6644L15.4575 17.1209L19.4679 16.197" stroke="white" stroke-linecap="round" stroke-linejoin="round"/>
<path d="M20.9101 11.7509L18.2036 8.63615L18.5671 4.52441" stroke="white" stroke-linecap="round" stroke-linejoin="round"/>
<path d="M11.0108 3.39331V6.74027" stroke="white" stroke-linecap="round" stroke-linejoin="round"/>
<path d="M15.458 10.1112L18.2037 8.63599" stroke="white" stroke-linecap="round" stroke-linejoin="round"/>
<path d="M13.7603 15.2253L15.4581 17.1206" stroke="white" stroke-linecap="round" stroke-linejoin="round"/>
<path d="M8.2651 15.2253L6.56641 17.1223" stroke="white" stroke-linecap="round" stroke-linejoin="round"/>
<path d="M3.81885 8.63843L6.5658 9.98104" stroke="white" stroke-linecap="round" stroke-linejoin="round"/>
</svg>
