<svg width="9" height="16" viewBox="0 0 9 16" fill="none" xmlns="http://www.w3.org/2000/svg">
<path d="M5.69683 13.697H3.42969V15.026H5.69683V13.697Z" fill="#00B570"/>
<path d="M4.54291 7.34387C4.65473 7.34387 4.75065 7.41055 4.79424 7.50595H5.97347C5.89499 6.7858 5.28307 6.22363 4.5424 6.22363C3.80173 6.22363 3.18981 6.7858 3.11133 7.50595H4.29055C4.33415 7.41055 4.43007 7.34387 4.54188 7.34387H4.54291Z" fill="#00B570"/>
<path d="M4.56281 4.02524C5.17217 4.02524 5.67381 3.55694 5.72767 2.96143H3.39795C3.45181 3.55694 3.95345 4.02524 4.56281 4.02524Z" fill="#00B570"/>
<path d="M4.5633 11.1938C3.95394 11.1938 3.45229 11.6622 3.39844 12.2577H5.72816C5.6743 11.6622 5.17266 11.1938 4.5633 11.1938Z" fill="#00B570"/>
<path d="M7.02406 2.73452V0.216553H5.92383V1.63531C5.92383 1.69789 5.87305 1.74867 5.81047 1.74867H3.31662C3.25404 1.74867 3.20326 1.69789 3.20326 1.63531V0.216553L2.10303 0.216553V2.73452H7.02406ZM4.56354 2.12464C4.61432 2.12464 4.65587 2.16568 4.65587 2.21697C4.65587 2.26826 4.61484 2.3093 4.56354 2.3093C4.51225 2.3093 4.47122 2.26826 4.47122 2.21697C4.47122 2.16568 4.51225 2.12464 4.56354 2.12464Z" fill="#00B570"/>
<path d="M5.69634 0.216553L3.4292 0.216553V1.52195H5.69634V0.216553Z" fill="#00B570"/>
<path d="M2.10254 12.4844V15.0259H3.20277V13.5836C3.20277 13.521 3.25355 13.4702 3.31613 13.4702H5.80998C5.87256 13.4702 5.92334 13.521 5.92334 13.5836V15.0259H7.02357V12.4844H2.10254ZM4.56305 13.0942C4.51227 13.0942 4.47073 13.0532 4.47073 13.0019C4.47073 12.9506 4.51176 12.9096 4.56305 12.9096C4.61435 12.9096 4.65538 12.9506 4.65538 13.0019C4.65538 13.0532 4.61435 13.0942 4.56305 13.0942Z" fill="#00B570"/>
<path d="M2.88425 7.50577C2.96375 6.66047 3.67724 5.99674 4.54306 5.99674C5.40888 5.99674 6.12236 6.66047 6.20187 7.50577L8.92654 7.50577V1.58094C8.92654 0.82745 8.31564 0.216553 7.56215 0.216553L7.25081 0.216553V2.84787C7.25081 2.91045 7.20003 2.96123 7.13745 2.96123H5.95618C5.90181 3.68189 5.29758 4.25176 4.56306 4.25176C3.82855 4.25176 3.22483 3.68189 3.16995 2.96123H1.98868C1.9261 2.96123 1.87532 2.91045 1.87532 2.84787L1.87532 0.216553L1.45472 0.216553C0.701229 0.216553 0.090332 0.82745 0.090332 1.58094L0.090332 7.51962C0.106746 7.51039 0.125211 7.50526 0.145215 7.50526H2.88425V7.50577Z" fill="#00B570"/>
<path d="M4.54306 9.32937C3.64749 9.32937 2.91503 8.61948 2.8781 7.73262H0.145215C0.125211 7.73262 0.106746 7.72749 0.090332 7.71826L0.090332 13.6605C0.090332 14.414 0.701229 15.0249 1.45472 15.0249H1.87532L1.87532 12.37C1.87532 12.3074 1.9261 12.2566 1.98868 12.2566H3.16995C3.22432 11.536 3.82855 10.9661 4.56306 10.9661C5.29758 10.9661 5.90129 11.536 5.95618 12.2566H7.13745C7.20003 12.2566 7.25081 12.3074 7.25081 12.37V15.0249H7.56215C8.31564 15.0249 8.92654 14.414 8.92654 13.6605V7.73211H6.20802C6.17109 8.61896 5.43863 9.32886 4.54306 9.32886V9.32937Z" fill="#00B570"/>
<path d="M4.54321 7.89729C4.43036 7.89729 4.33393 7.82958 4.29085 7.73315H3.10547C3.14189 8.49485 3.77279 9.10267 4.54321 9.10267C5.31362 9.10267 5.94453 8.49434 5.98094 7.73315H4.79557C4.75248 7.8301 4.65554 7.89729 4.54321 7.89729Z" fill="#00B570"/>
<path d="M3.31599 1.74943H5.80985C5.87243 1.74943 5.92321 1.69865 5.92321 1.63607V0.216797H5.69649V1.5222H3.42935V0.216797H3.20264V1.63556C3.20264 1.69813 3.25342 1.74891 3.31599 1.74891V1.74943Z" fill="#FBFBFB"/>
<path d="M4.56303 2.30941C4.61381 2.30941 4.65536 2.26838 4.65536 2.21708C4.65536 2.16579 4.61432 2.12476 4.56303 2.12476C4.51174 2.12476 4.4707 2.16579 4.4707 2.21708C4.4707 2.26838 4.51174 2.30941 4.56303 2.30941Z" fill="#FBFBFB"/>
<path d="M7.02423 0.216553V2.73452H2.10269V0.216553H1.87598V2.84787C1.87598 2.91045 1.92676 2.96123 1.98933 2.96123H3.17061C3.22498 3.68189 3.82921 4.25176 4.56372 4.25176C5.29823 4.25176 5.90195 3.68189 5.95683 2.96123H7.1381C7.20068 2.96123 7.25146 2.91045 7.25146 2.84787V0.216553H7.02475H7.02423ZM4.56372 4.02504C3.95436 4.02504 3.45272 3.55674 3.39886 2.96123H5.72858C5.67472 3.55674 5.17308 4.02504 4.56372 4.02504Z" fill="#FBFBFB"/>
<path d="M5.81034 13.4702H3.31648C3.25391 13.4702 3.20312 13.521 3.20312 13.5836V15.0259H3.42984V13.6969H5.69698V15.0259H5.9237V13.5836C5.9237 13.521 5.87292 13.4702 5.81034 13.4702Z" fill="#FBFBFB"/>
<path d="M4.56303 12.9102C4.51225 12.9102 4.4707 12.9512 4.4707 13.0025C4.4707 13.0538 4.51174 13.0948 4.56303 13.0948C4.61432 13.0948 4.65536 13.0538 4.65536 13.0025C4.65536 12.9512 4.61432 12.9102 4.56303 12.9102Z" fill="#FBFBFB"/>
<path d="M7.13762 12.2578H5.95634C5.90197 11.5371 5.29774 10.9673 4.56323 10.9673C3.82872 10.9673 3.225 11.5371 3.17012 12.2578H3.39786C3.45172 11.6623 3.95336 11.194 4.56272 11.194C5.17208 11.194 5.67372 11.6623 5.72758 12.2578H3.39786C3.39478 12.2927 3.39273 12.3281 3.39273 12.364C3.39273 12.4266 3.34195 12.4773 3.27937 12.4773C3.21679 12.4773 3.16602 12.4266 3.16602 12.364C3.16602 12.3281 3.16755 12.2927 3.17012 12.2578H1.98885C1.92627 12.2578 1.87549 12.3086 1.87549 12.3712V15.0261H2.1022V12.4845H7.02323V15.0261H7.24995V12.3712C7.24995 12.3086 7.19917 12.2578 7.13659 12.2578H7.13762Z" fill="#FBFBFB"/>
<path d="M3.27986 12.4773C3.34244 12.4773 3.39322 12.4266 3.39322 12.364C3.39322 12.3281 3.39527 12.2927 3.39835 12.2578H3.17061C3.16804 12.2927 3.1665 12.3286 3.1665 12.364C3.1665 12.4266 3.21728 12.4773 3.27986 12.4773Z" fill="#FBFBFB"/>
<path d="M6.20238 7.50586C6.12288 6.66055 5.4094 5.99683 4.54357 5.99683C3.67775 5.99683 2.96427 6.66055 2.88476 7.50586H0.145215C0.125211 7.50586 0.106746 7.51099 0.090332 7.52022V7.71873C0.106746 7.72796 0.125211 7.73309 0.145215 7.73309H2.87861C2.91554 8.61994 3.648 9.32983 4.54357 9.32983C5.43915 9.32983 6.17161 8.61994 6.20854 7.73309H8.92706V7.50637H6.20238V7.50586ZM4.54357 6.22354C5.28424 6.22354 5.89616 6.78571 5.97464 7.50586H4.79542C4.75182 7.41046 4.6559 7.34377 4.54409 7.34377C4.43227 7.34377 4.33635 7.41046 4.29275 7.50586H3.11353C3.19201 6.78571 3.80393 6.22354 4.5446 6.22354H4.54357ZM4.54357 9.10261C3.77316 9.10261 3.14225 8.49427 3.10584 7.73309H4.29121C4.3343 7.83003 4.43124 7.89722 4.54357 7.89722C4.6559 7.89722 4.75285 7.82952 4.79593 7.73309H5.98131C5.94489 8.49479 5.31399 9.10261 4.54357 9.10261Z" fill="#FBFBFB"/>
</svg>
