<svg width="211" height="63" viewBox="0 0 211 63" fill="none" xmlns="http://www.w3.org/2000/svg">
<path d="M77.4737 53.2631C75.6842 53.2631 74.1053 53 72.7368 52.4737C71.421 51.9473 70.3158 51.2631 69.421 50.3684C68.5789 49.4737 67.8947 48.4737 67.4737 47.3684C67.0526 46.2631 66.8421 45.0526 66.8421 43.7895C66.8421 42.6316 67 41.4737 67.3684 40.3158C67.6842 39.1579 68.2105 38.0526 68.8947 37.0526L72.1579 38.5263C71.7368 39.421 71.3684 40.2631 71.1579 41.1052C70.9474 41.9473 70.8421 42.6842 70.8421 43.3684C70.8421 44.5263 71.1053 45.4737 71.5789 46.2631C72.0526 47.0526 72.7895 47.6316 73.7895 48.0526C74.7895 48.4737 76 48.6316 77.4211 48.6316H91.1579V27.8947H95.3684L95.2105 53.2631H77.4737ZM77.7368 39.8947V37.5263C78.7895 37.5263 79.8421 37.4737 81 37.3158C82.1579 37.2105 83.0526 37 83.7895 36.7895L83.6316 37.1579L80.2632 35.9474C79.6842 35.7368 79.2632 35.421 79 35.0526C78.7368 34.6842 78.6316 34.3158 78.6316 33.8947C78.6316 33.1579 78.8947 32.421 79.3684 31.6842C79.8947 30.9474 80.5789 30.3158 81.5263 29.8421C82.4737 29.3158 83.5789 29.1052 84.7895 29.1052V31.5789C83.8947 31.5789 83.1053 31.7368 82.4211 32.0526C81.7368 32.3684 81.2105 32.7895 80.8947 33.2631C80.5263 33.7368 80.3684 34.2631 80.3684 34.7368L79.4737 33.1052L83.6842 34.6316C84.3684 34.8947 84.8947 35.2105 85.1579 35.5789C85.4211 35.9473 85.5789 36.3158 85.5789 36.6842C85.5789 37.1052 85.4737 37.4737 85.3158 37.8421C85.1053 38.2105 84.7895 38.5263 84.2632 38.8421C83.7368 39.1579 82.9474 39.3684 81.8947 39.5789C80.7895 39.8421 79.421 39.8947 77.7368 39.8947ZM93.2105 53.2631V48.6316H99.3684V53.2631H93.2105ZM99.3684 53.2631V48.6316C99.6316 48.6316 99.7895 48.8421 99.8947 49.2631C100 49.6842 100.053 50.2105 100.053 50.8947C100.053 51.5789 100 52.1579 99.8947 52.5789C99.7895 53.0526 99.6316 53.2631 99.3684 53.2631Z" fill="#CC0000"/>
<path d="M99.3684 53.2632C99.1053 53.2632 98.9474 53.0526 98.8421 52.6316C98.7368 52.2105 98.6842 51.6316 98.6842 50.8947C98.6842 50.2105 98.7368 49.6842 98.8421 49.2632C98.9474 48.8421 99.1053 48.6316 99.3684 48.6316V53.2632ZM99.3684 53.2632V48.6316H105.842V53.2632H99.3684ZM105.842 53.2632V48.6316C106.105 48.6316 106.263 48.8421 106.368 49.2632C106.474 49.6842 106.526 50.2105 106.526 50.8947C106.526 51.579 106.474 52.1579 106.368 52.579C106.263 53.0526 106.105 53.2632 105.842 53.2632Z" fill="#CC0000"/>
<path d="M105.842 53.2632C105.579 53.2632 105.421 53.0526 105.316 52.6316C105.211 52.2105 105.158 51.6316 105.158 50.8947C105.158 50.2105 105.211 49.6842 105.316 49.2632C105.421 48.8421 105.579 48.6316 105.842 48.6316V53.2632ZM105.842 53.2632V48.6316H112.316V53.2632H105.842ZM112.316 53.2632V48.6316C112.579 48.6316 112.737 48.8421 112.842 49.2632C112.947 49.6842 113 50.2105 113 50.8947C113 51.579 112.947 52.1579 112.842 52.579C112.737 53.0526 112.579 53.2632 112.316 53.2632Z" fill="#CC0000"/>
<path d="M112.316 53.2632C112.053 53.2632 111.895 53.0526 111.789 52.6316C111.684 52.2105 111.632 51.6316 111.632 50.8947C111.632 50.2105 111.684 49.6842 111.789 49.2632C111.895 48.8421 112.053 48.6316 112.316 48.6316V53.2632ZM112.316 53.2632V48.6316H118.789V53.2632H112.316ZM118.789 53.2632V48.6316C119.053 48.6316 119.211 48.8421 119.316 49.2632C119.421 49.6842 119.474 50.2105 119.474 50.8947C119.474 51.579 119.421 52.1579 119.316 52.579C119.211 53.0526 119.053 53.2632 118.789 53.2632Z" fill="#CC0000"/>
<path d="M118.79 53.2632C118.526 53.2632 118.369 53.0526 118.263 52.6316C118.158 52.2105 118.105 51.6316 118.105 50.8947C118.105 50.2105 118.158 49.6842 118.263 49.2632C118.369 48.8421 118.526 48.6316 118.79 48.6316V53.2632ZM118.79 53.2632V48.6316H125.263V53.2632H118.79ZM125.263 53.2632V48.6316C125.526 48.6316 125.684 48.8421 125.79 49.2632C125.895 49.6842 125.947 50.2105 125.947 50.8947C125.947 51.579 125.895 52.1579 125.79 52.579C125.684 53.0526 125.526 53.2632 125.263 53.2632Z" fill="#CC0000"/>
<path d="M125.263 53.2632C125 53.2632 124.842 53.0526 124.737 52.6316C124.632 52.2105 124.579 51.6316 124.579 50.8947C124.579 50.2105 124.632 49.6842 124.737 49.2632C124.842 48.8421 125 48.6316 125.263 48.6316V53.2632ZM130.316 36H134.316V53.2632H125.263V48.6316H130.316V36ZM129.737 31.9474C129.105 31.9474 128.526 31.7368 128.105 31.3158C127.684 30.8947 127.474 30.3684 127.474 29.7368C127.474 29.1053 127.684 28.5263 128.105 28.1053C128.526 27.6842 129.053 27.4737 129.737 27.4737C130.368 27.4737 130.895 27.6842 131.316 28.1053C131.737 28.5263 131.947 29.0526 131.947 29.7368C131.947 30.3684 131.737 30.8947 131.316 31.3158C130.895 31.7368 130.368 31.9474 129.737 31.9474ZM134.947 31.9474C134.316 31.9474 133.737 31.7368 133.316 31.3158C132.895 30.8947 132.684 30.3684 132.684 29.7368C132.684 29.1053 132.895 28.5263 133.316 28.1053C133.737 27.6842 134.263 27.4737 134.947 27.4737C135.579 27.4737 136.105 27.6842 136.526 28.1053C136.947 28.5263 137.158 29.0526 137.158 29.7368C137.158 30.3684 136.947 30.8947 136.526 31.3158C136.105 31.7368 135.579 31.9474 134.947 31.9474Z" fill="#CC0000"/>
<path d="M135.421 58.3684C136.579 58.3684 137.474 58.2631 138.158 58C138.842 57.7368 139.316 57.3684 139.632 56.7895C139.947 56.2105 140.053 55.5263 140.053 54.6842V36H144.053V54.6316C144.053 56.3158 143.737 57.7368 143.105 58.9474C142.474 60.1579 141.579 61.0526 140.421 61.6842C139.263 62.3158 137.842 62.6842 136.158 62.7368L135.421 58.3684Z" fill="#CC0000"/>
<path d="M156.842 53.2632C154.947 53.2632 153.316 52.8421 151.947 52.0526C150.579 51.2632 149.474 50.1579 148.684 48.7895C147.895 47.4211 147.526 45.9474 147.526 44.3158C147.526 43 147.789 41.7368 148.263 40.6316C148.737 39.5263 149.421 38.5263 150.263 37.6842C151.105 36.8421 152.105 36.1579 153.263 35.7368C154.368 35.2632 155.579 35.0526 156.895 35.0526C158.21 35.0526 159.421 35.2632 160.632 35.6316C161.842 36 162.895 36.4211 163.842 36.8947L162.105 41C160.158 40 158.421 39.4737 156.895 39.4737C155.895 39.4737 155 39.6842 154.158 40.1053C153.368 40.5263 152.684 41.1053 152.263 41.8421C151.789 42.5789 151.579 43.3684 151.579 44.3158C151.579 45.1579 151.789 45.9474 152.21 46.5789C152.632 47.2632 153.263 47.7895 154.053 48.2105C154.842 48.6316 155.789 48.7895 156.842 48.7895H162.053V53.2632H156.842ZM149 62.7368V58.1579H155.737C157.21 58.1579 158.263 57.8947 158.895 57.3158C159.526 56.7368 159.842 55.8421 159.842 54.6842V36.7895H163.842V54.6316C163.842 56.3684 163.526 57.7895 162.842 59C162.21 60.2105 161.263 61.1053 160.053 61.7368C158.842 62.3684 157.368 62.6842 155.737 62.6842H149V62.7368ZM162.842 53.2632V48.6316H168V53.2632H162.842ZM168 53.2632V48.6316C168.21 48.6316 168.421 48.8421 168.526 49.2632C168.632 49.6842 168.684 50.2105 168.684 50.8947C168.684 51.5789 168.632 52.1579 168.526 52.5789C168.421 53.0526 168.263 53.2632 168 53.2632Z" fill="#CC0000"/>
<path d="M168 53.2631C167.737 53.2631 167.579 53.0526 167.474 52.6316C167.368 52.2105 167.316 51.6316 167.316 50.8947C167.316 50.2105 167.368 49.6842 167.474 49.2631C167.579 48.8421 167.737 48.6316 168 48.6316V53.2631ZM168 53.2631V48.6316H169.842C170.842 48.6316 171.579 48.5789 172.053 48.421C172.526 48.2631 172.895 48 173.053 47.5789C173.211 47.1579 173.316 46.5263 173.316 45.7368V36H177.316V45.7368C177.316 47.421 177.053 48.7895 176.526 49.8947C176 51 175.158 51.8421 174.105 52.421C173.053 53 171.632 53.2631 169.895 53.2631H168ZM175.211 62.8947C174.526 62.8947 173.895 62.6316 173.421 62.1579C172.947 61.6842 172.684 61.0526 172.684 60.3684C172.684 59.6316 172.947 59.0526 173.421 58.5789C173.895 58.1052 174.526 57.8421 175.211 57.8421C175.947 57.8421 176.579 58.1052 177.053 58.5789C177.526 59.0526 177.789 59.6842 177.789 60.3684C177.789 61.1052 177.526 61.6842 177.053 62.1579C176.579 62.6316 176 62.8947 175.211 62.8947ZM180.737 53.2631C179.053 53.2631 177.632 53 176.526 52.421C175.421 51.8421 174.579 51 174.053 49.8947C173.526 48.7895 173.263 47.3684 173.263 45.7368H177.263C177.263 46.5263 177.368 47.1579 177.526 47.5789C177.684 48 178.053 48.2631 178.526 48.421C179 48.5789 179.737 48.6316 180.684 48.6316H182.105V53.2631H180.737ZM182.158 53.2631V48.6316C182.421 48.6316 182.579 48.8421 182.684 49.2631C182.789 49.6842 182.842 50.2105 182.842 50.8947C182.842 51.5789 182.789 52.1579 182.684 52.5789C182.579 53.0526 182.421 53.2631 182.158 53.2631Z" fill="#CC0000"/>
<path d="M182.158 53.2631C181.895 53.2631 181.737 53.0526 181.632 52.6316C181.526 52.2105 181.474 51.6316 181.474 50.8947C181.474 50.2105 181.526 49.6842 181.632 49.2631C181.737 48.8421 181.895 48.6316 182.158 48.6316V53.2631ZM182.158 53.2631V48.6316H183.947C184.947 48.6316 185.684 48.5789 186.158 48.421C186.632 48.2631 187 48 187.158 47.5789C187.316 47.1579 187.421 46.5263 187.421 45.7368V39.4737H191.421V45.6842C191.421 47.3684 191.158 48.7368 190.632 49.8421C190.105 50.9473 189.263 51.7895 188.21 52.3684C187.158 52.9474 185.737 53.2105 184 53.2105H182.158V53.2631ZM194.842 53.2631C194 53.2631 193.158 53.1052 192.368 52.7368C191.526 52.421 190.842 51.8421 190.21 51.1579C189.579 50.421 189.105 49.5263 188.789 48.3684L191.368 46.7368C191.526 47.421 191.895 47.9474 192.474 48.3158C193.053 48.6842 193.632 48.8421 194.263 48.8421C195 48.8421 195.684 48.5789 196.316 48.0526C196.947 47.5263 197.21 46.7368 197.21 45.6842V37.7368H201.21V45.9474C201.21 47.5789 200.895 48.9474 200.263 50.0526C199.632 51.1579 198.842 51.9473 197.895 52.4737C196.947 53 195.895 53.2631 194.842 53.2631ZM204.632 53.2631C203.789 53.2631 202.947 53.1052 202.158 52.7368C201.368 52.421 200.632 51.8421 200 51.1579C199.368 50.421 198.895 49.5263 198.579 48.3684L201.158 46.7368C201.368 47.421 201.737 47.9474 202.263 48.3158C202.789 48.6842 203.421 48.8421 204.053 48.8421C204.789 48.8421 205.474 48.5789 206.105 48.0526C206.737 47.5263 207 46.7368 207 45.6842V36H211V45.9474C211 47.5789 210.684 48.9474 210.105 50.0526C209.474 51.1052 208.684 51.9473 207.737 52.4737C206.684 53 205.684 53.2631 204.632 53.2631Z" fill="#CC0000"/>
<path d="M43.7369 45.0526C43.6842 45.5263 43.4211 45.6842 43.2106 45.9474C37.3158 51.3684 31.4737 56.8421 25.579 62.2632C25.0527 62.7369 24.6842 62.7369 24.2106 62.2105C22.6316 60.4737 21.1053 58.7895 19.4737 57.1053C18.8948 56.5263 18.8948 56.1579 19.5263 55.579C23.1579 52.2105 26.7895 48.8421 30.4211 45.4737C31.1053 44.8421 31.1579 44.4737 30.4737 43.8421C28.8421 42.1579 27.2106 40.4737 25.6316 38.6842C25.0527 38.0526 24.7369 38.1053 24.1053 38.6842C20.5263 42.1053 16.8948 45.4211 13.3158 48.7895C12.6316 49.4211 12.2106 49.4737 11.579 48.7369C10.1579 47.0526 8.63161 45.4737 7.10529 43.8948C6.47372 43.2632 6.52635 42.8421 7.15793 42.3158C12.4211 37.3684 17.6842 32.4737 23 27.579C23.579 27.0526 24.2106 26.4737 24.7895 25.8948C25.2632 25.4211 25.579 25.4211 26.0527 25.8948C31.7369 32.1053 37.4737 38.2632 43.2106 44.4211C43.4211 44.6316 43.579 44.8948 43.7369 45.0526Z" fill="#CC0000"/>
<path d="M36.8947 31.4211C36.5263 31.3158 36.3158 31 36.0526 30.7368C32.8421 27.3158 29.6316 23.8947 26.421 20.4211C25.7368 19.6842 25.3684 19.7368 24.6842 20.3684C21.2105 23.6842 17.6316 26.8947 14.1579 30.2632C13.3158 31.0526 12.8421 31.0526 12.1052 30.2105C10.6842 28.5789 9.2105 27 7.68419 25.4211C7.15787 24.8421 7.05261 24.4737 7.68419 23.8947C13.5263 18.5263 19.3158 13.1053 25.1579 7.68421C25.8421 7.05263 26.2105 7.05263 26.8421 7.73684C30.0526 11.2105 33.3158 14.6842 36.5263 18.1579C37.1579 18.8421 37.5263 18.8947 38.2631 18.2105C41.6316 15 45.1052 11.8421 48.4737 8.63158C49.0526 8.05263 49.421 8.15789 49.8947 8.68421C51.4737 10.3684 53.0526 12.1053 54.6316 13.7368C55.1579 14.2632 55.1579 14.6316 54.5789 15.1579C48.9473 20.3684 43.3158 25.5789 37.6842 30.8421C37.5263 31.1053 37.2631 31.3684 36.8947 31.4211Z" fill="white"/>
<path d="M0 50.5263C0 47.9474 2.15789 45.8421 4.73684 45.8421C7.36842 45.8421 9.52632 48 9.57895 50.579C9.57895 53.1579 7.36842 55.4211 4.84211 55.4211C2.15789 55.4211 0 53.2105 0 50.5263Z" fill="white"/>
<path d="M34.9999 9.42106C32.3684 9.42106 30.2105 7.26317 30.2631 4.68422C30.2631 2.05264 32.421 8.58307e-06 35.1052 8.58307e-06C37.7368 8.58307e-06 39.842 2.1579 39.842 4.78948C39.7894 7.42106 37.6841 9.42106 34.9999 9.42106Z" fill="#CC0000"/>
<path d="M84.3684 6.42106C83.5263 5.89474 82.6316 5.42106 81.7369 5.10527C80.8421 4.73685 80 4.52632 79.2105 4.36843C78.4211 4.21053 77.6842 4.1579 77.0526 4.1579C75.9474 4.1579 75.0526 4.36843 74.4211 4.78948C73.7369 5.21053 73.4211 5.84211 73.4211 6.63159C73.4211 7.36843 73.6842 8.00001 74.1579 8.47369C74.6316 8.94738 75.2632 9.3158 76.0526 9.63159C76.8421 9.94738 77.6842 10.2105 78.6316 10.5263C79.579 10.8421 80.5263 11.1053 81.4211 11.4737C82.3684 11.7895 83.2105 12.2632 84 12.7895C84.7895 13.3158 85.4211 14 85.8948 14.8421C86.3684 15.6842 86.579 16.7369 86.579 18C86.579 19.5263 86.1579 20.8421 85.3684 21.8947C84.5263 22.9474 83.4211 23.7895 82 24.3684C80.579 24.9474 79 25.2632 77.1579 25.2632C75.8421 25.2632 74.579 25.1053 73.3158 24.7369C72.0526 24.4211 70.8948 23.9474 69.7895 23.3684C68.6842 22.7895 67.6842 22.1053 66.7895 21.3158L68.7369 17.4737C69.579 18.2632 70.4737 18.8947 71.4737 19.4737C72.4737 20 73.4211 20.4211 74.4211 20.7369C75.4211 21.0526 76.3684 21.1579 77.2105 21.1579C78.5263 21.1579 79.579 20.8947 80.3158 20.3684C81.0527 19.8421 81.4211 19.1053 81.4211 18.2105C81.4211 17.4211 81.1579 16.8421 80.6842 16.3684C80.2105 15.8947 79.579 15.5263 78.7895 15.2105C78 14.8947 77.1579 14.6316 76.2105 14.3684C75.2632 14.1053 74.3158 13.8421 73.3684 13.4737C72.4211 13.1053 71.579 12.6842 70.7895 12.1579C70 11.6316 69.3684 10.9474 68.8947 10.1579C68.4211 9.3158 68.1579 8.3158 68.1579 7.05264C68.1579 5.63159 68.5263 4.36843 69.3158 3.36843C70.1053 2.3158 71.1579 1.52632 72.5263 0.947376C73.8948 0.368428 75.5263 0.10527 77.3684 0.10527C79 0.10527 80.579 0.315797 82.1579 0.789481C83.7369 1.26317 85.0526 1.89474 86.2632 2.63159L84.3684 6.42106Z" fill="white"/>
<path d="M101 0.368426C104.105 0.368426 106.526 1.10527 108.211 2.57895C109.895 4.05264 110.789 6.10527 110.789 8.78948C110.789 11.579 109.947 13.7368 108.211 15.2632C106.526 16.7895 104.105 17.579 101 17.579H93.579L95.6316 15.5263L95.3684 27.8947H91.1579L91 0.368426H101ZM100.789 13.6842C102.526 13.6842 103.895 13.2632 104.842 12.4737C105.789 11.6842 106.263 10.4737 106.263 8.84211C106.263 7.31579 105.789 6.1579 104.842 5.36843C103.895 4.63158 102.526 4.21053 100.789 4.21053H93.579L95.6316 2.1579V15.7895L93.579 13.7368H100.789V13.6842Z" fill="white"/>
<path d="M125.789 0.105249C127.632 0.105249 129.368 0.421039 130.947 1.05262C132.526 1.6842 133.947 2.57893 135.105 3.73683C136.263 4.89472 137.21 6.21051 137.895 7.73683C138.579 9.26314 138.895 10.8947 138.895 12.6842C138.895 14.421 138.579 16.1052 137.895 17.6316C137.21 19.1579 136.316 20.5263 135.105 21.6842C133.947 22.8421 132.526 23.7368 130.947 24.3684C129.368 25 127.632 25.3158 125.789 25.3158C123.947 25.3158 122.21 25 120.632 24.3684C119.053 23.7368 117.684 22.8421 116.474 21.6842C115.263 20.5263 114.368 19.2105 113.684 17.6842C113 16.1579 112.684 14.4737 112.684 12.7368C112.684 10.9474 113 9.31578 113.684 7.78946C114.368 6.26314 115.263 4.94735 116.474 3.78946C117.684 2.63157 119.053 1.78946 120.632 1.15788C122.263 0.421039 123.947 0.105249 125.789 0.105249ZM125.895 4.05262C124.737 4.05262 123.684 4.26314 122.684 4.6842C121.684 5.10525 120.789 5.73683 120 6.5263C119.21 7.31578 118.632 8.21051 118.21 9.26314C117.789 10.3158 117.579 11.421 117.579 12.6316C117.579 13.8421 117.789 15 118.263 16C118.684 17.0526 119.316 17.9474 120.105 18.7368C120.895 19.5263 121.789 20.1579 122.789 20.5789C123.789 21 124.842 21.2631 126 21.2631C127.105 21.2631 128.158 21.0526 129.158 20.5789C130.158 20.1579 131 19.5263 131.789 18.7368C132.526 17.9474 133.105 17 133.579 16C134 14.9474 134.21 13.8421 134.21 12.6316C134.21 11.421 134 10.3158 133.579 9.26314C133.158 8.21051 132.579 7.31578 131.789 6.5263C131.053 5.73683 130.158 5.15788 129.158 4.6842C128.053 4.26314 127 4.05262 125.895 4.05262Z" fill="white"/>
<path d="M153.263 0.368426C156.421 0.368426 158.895 1.10527 160.632 2.57895C162.369 4.05264 163.211 6.10527 163.211 8.78948C163.211 11.579 162.369 13.7368 160.632 15.2632C158.895 16.7895 156.421 17.579 153.263 17.579H147.737V24.8947H143.053V0.368426H153.263ZM153.263 13.6842C155 13.6842 156.369 13.2632 157.316 12.4737C158.263 11.6842 158.737 10.4737 158.737 8.84211C158.737 7.31579 158.263 6.1579 157.316 5.36843C156.369 4.63158 155 4.21053 153.263 4.21053H147.737V13.6842H153.263ZM153.053 15.7895H157.632L163.684 24.8947H158.369L153.053 15.7895Z" fill="white"/>
<path d="M165.632 0.368426H185.632V4.31579H178V24.8947H173.263V4.31579H165.632V0.368426Z" fill="white"/>
<path d="M189 0.368426H193.684V12.9474L204.737 0.368426H210.263L193.684 18.6316V24.8947H189V0.368426ZM200.421 10.1579L210.895 24.8947H205.263L197.316 13.8947L200.421 10.1579Z" fill="white"/>
</svg>
