<svg width="20" height="20" viewBox="0 0 20 20" fill="none" xmlns="http://www.w3.org/2000/svg">
<path d="M8.33359 13.3333C8.33359 13.663 8.23585 13.9852 8.05271 14.2593C7.86958 14.5334 7.60929 14.747 7.30475 14.8731C7.00022 14.9993 6.66511 15.0323 6.34182 14.968C6.01852 14.9037 5.72156 14.7449 5.48848 14.5118C5.25539 14.2788 5.09666 13.9818 5.03236 13.6585C4.96805 13.3352 5.00105 13.0001 5.1272 12.6955C5.25334 12.391 5.46696 12.1307 5.74103 11.9475C6.01511 11.7644 6.33733 11.6667 6.66696 11.6667C7.10898 11.6667 7.53289 11.8423 7.84545 12.1548C8.158 12.4674 8.33359 12.8913 8.33359 13.3333ZM20 8.75V9.79C20 10.2781 19.8287 10.7507 19.5159 11.1253C19.203 11.5 18.7686 11.7529 18.2884 11.84L13.9876 12.6217C13.798 12.6633 13.6289 12.7699 13.5095 12.9229C13.39 13.076 13.3278 13.2659 13.3335 13.46C13.3101 14.4109 13.081 15.3454 12.6618 16.1992C12.2039 17.1715 11.5164 18.018 10.6586 18.6656C9.80077 19.3132 8.79838 19.7426 7.73777 19.9167C7.3852 19.972 7.02885 19.9999 6.67196 20C5.75391 20.0007 4.84561 19.8119 4.00396 19.4452C3.16231 19.0785 2.40547 18.542 1.78085 17.8692C1.15624 17.1963 0.677318 16.4017 0.374105 15.5352C0.0708927 14.6687 -0.0500771 13.7488 0.0187768 12.8333C0.176061 11.1344 0.966863 9.55688 2.23398 8.41433C3.5011 7.27179 5.15175 6.64789 6.85779 6.66667H17.9167C18.1903 6.66667 18.4612 6.72055 18.714 6.82525C18.9667 6.92995 19.1964 7.08341 19.3898 7.27686C19.5833 7.47032 19.7367 7.69998 19.8414 7.95274C19.9461 8.2055 20 8.47641 20 8.75ZM10.0002 13.3333C10.0002 12.6741 9.80473 12.0296 9.43847 11.4814C9.0722 10.9333 8.55162 10.506 7.94255 10.2537C7.33347 10.0014 6.66327 9.93543 6.01668 10.064C5.37009 10.1927 4.77616 10.5101 4.30999 10.9763C3.84383 11.4425 3.52637 12.0364 3.39775 12.683C3.26914 13.3296 3.33515 13.9999 3.58743 14.6089C3.83972 15.218 4.26695 15.7386 4.8151 16.1049C5.36325 16.4712 6.00771 16.6667 6.66696 16.6667C7.551 16.6667 8.39883 16.3155 9.02393 15.6904C9.64904 15.0652 10.0002 14.2174 10.0002 13.3333ZM9.16691 3.33333V0.833333C9.16691 0.61232 9.07911 0.400358 8.92283 0.244078C8.76656 0.0877974 8.5546 0 8.33359 0C8.11258 0 7.90063 0.0877974 7.74435 0.244078C7.58807 0.400358 7.50028 0.61232 7.50028 0.833333V3.33333C7.50028 3.55435 7.58807 3.76631 7.74435 3.92259C7.90063 4.07887 8.11258 4.16667 8.33359 4.16667C8.5546 4.16667 8.76656 4.07887 8.92283 3.92259C9.07911 3.76631 9.16691 3.55435 9.16691 3.33333ZM12.0002 4.53917L13.2501 2.03917C13.3489 1.84136 13.3651 1.61241 13.2951 1.40268C13.2251 1.19295 13.0746 1.01963 12.8768 0.920833C12.7789 0.871916 12.6723 0.842769 12.5631 0.835057C12.4539 0.827345 12.3442 0.841218 12.2404 0.875885C12.0306 0.945899 11.8573 1.09636 11.7585 1.29417L10.5085 3.79417C10.4586 3.89216 10.4286 3.99907 10.4202 4.10873C10.4118 4.21839 10.4251 4.32863 10.4595 4.43309C10.4939 4.53756 10.5487 4.63418 10.6206 4.71739C10.6925 4.8006 10.7802 4.86875 10.8785 4.91792C10.9769 4.96708 11.0841 4.99628 11.1938 5.00384C11.3035 5.0114 11.4136 4.99716 11.5178 4.96195C11.622 4.92674 11.7182 4.87126 11.8008 4.7987C11.8835 4.72613 11.9518 4.63793 12.0002 4.53917ZM5.81032 4.91083C5.908 4.86144 5.995 4.79329 6.06633 4.71026C6.13767 4.62724 6.19196 4.53097 6.22608 4.42697C6.26021 4.32296 6.27351 4.21325 6.26523 4.1041C6.25694 3.99495 6.22724 3.8885 6.17781 3.79083L4.9145 1.29083C4.86573 1.19231 4.79795 1.10441 4.71506 1.03219C4.63217 0.959976 4.53581 0.904876 4.43154 0.870065C4.32726 0.835255 4.21713 0.821421 4.10748 0.829362C3.99784 0.837303 3.89084 0.866861 3.79267 0.916333C3.6945 0.965805 3.60709 1.03421 3.53547 1.11762C3.46385 1.20102 3.40944 1.29777 3.37537 1.4023C3.34131 1.50682 3.32826 1.61706 3.33699 1.72665C3.34571 1.83623 3.37603 1.94301 3.4262 2.04083L4.69034 4.54083C4.75947 4.67842 4.86537 4.79416 4.99629 4.87521C5.1272 4.95626 5.27802 4.99946 5.43199 5C5.5622 4.99966 5.69055 4.96913 5.80698 4.91083H5.81032Z" fill="#032D4B"/>
</svg>
