<svg width="25" height="19" viewBox="0 0 25 19" fill="none" xmlns="http://www.w3.org/2000/svg">
<path d="M25 1.03875C25 0.467437 24.5313 0 23.9583 0H6.25C5.67708 0 5.20833 0.467437 5.20833 1.03875C5.20833 1.61006 5.67708 2.0775 6.25 2.0775H23.9583C24.5313 2.0775 25 1.61006 25 1.03875ZM6.25 16.62H23.9583C24.5313 16.62 25 17.0874 25 17.6587C25 18.23 24.5313 18.6975 23.9583 18.6975H6.25C5.67708 18.6975 5.20833 18.23 5.20833 17.6587C5.20833 17.0874 5.67708 16.62 6.25 16.62ZM1.04167 8.30999H18.75C19.3229 8.30999 19.7917 8.77743 19.7917 9.34874C19.7917 9.92005 19.3229 10.3875 18.75 10.3875H1.04167C0.46875 10.3875 0 9.92005 0 9.34874C0 8.77743 0.46875 8.30999 1.04167 8.30999Z" fill="#020B2A"/>
</svg>
