<svg width="20" height="20" viewBox="0 0 20 20" fill="none" xmlns="http://www.w3.org/2000/svg">
<path d="M7.08317 15.8334H6.6665C3.33317 15.8334 1.6665 15 1.6665 10.8334V6.66669C1.6665 3.33335 3.33317 1.66669 6.6665 1.66669H13.3332C16.6665 1.66669 18.3332 3.33335 18.3332 6.66669V10.8334C18.3332 14.1667 16.6665 15.8334 13.3332 15.8334H12.9165C12.6582 15.8334 12.4082 15.9584 12.2498 16.1667L10.9998 17.8334C10.4498 18.5667 9.54984 18.5667 8.99984 17.8334L7.74984 16.1667C7.6165 15.9834 7.30817 15.8334 7.08317 15.8334Z" stroke="#3E4237" stroke-width="1.5" stroke-miterlimit="10" stroke-linecap="round" stroke-linejoin="round"/>
<path d="M5.8335 6.66669H14.1668" stroke="#3E4237" stroke-width="1.5" stroke-linecap="round" stroke-linejoin="round"/>
<path d="M5.8335 10.8333H10.8335" stroke="#3E4237" stroke-width="1.5" stroke-linecap="round" stroke-linejoin="round"/>
</svg>
