<svg width="25" height="25" viewBox="0 0 25 25" fill="none" xmlns="http://www.w3.org/2000/svg">
<path d="M17.7083 19.198H13.5417L8.90623 22.2813C8.21873 22.7396 7.29166 22.2501 7.29166 21.4167V19.198C4.16666 19.198 2.08333 17.1146 2.08333 13.9896V7.73958C2.08333 4.61458 4.16666 2.53125 7.29166 2.53125H17.7083C20.8333 2.53125 22.9167 4.61458 22.9167 7.73958V13.9896C22.9167 17.1146 20.8333 19.198 17.7083 19.198Z" stroke="#032D4B" stroke-width="1.5" stroke-miterlimit="10" stroke-linecap="round" stroke-linejoin="round"/>
<path d="M12.5 11.8334V11.6147C12.5 10.9063 12.9375 10.5313 13.375 10.2292C13.8021 9.93756 14.2291 9.56258 14.2291 8.87508C14.2291 7.91674 13.4583 7.14587 12.5 7.14587C11.5417 7.14587 10.7709 7.91674 10.7709 8.87508" stroke="#032D4B" stroke-width="1.5" stroke-linecap="round" stroke-linejoin="round"/>
<path d="M12.4953 14.323H12.5047" stroke="#032D4B" stroke-width="1.5" stroke-linecap="round" stroke-linejoin="round"/>
</svg>
