<svg width="25" height="25" viewBox="0 0 25 25" fill="none" xmlns="http://www.w3.org/2000/svg">
<path d="M17.7083 9.37504C17.7083 13.4063 14.2083 16.6667 9.89583 16.6667L8.92709 17.8334L8.35417 18.5209C7.86458 19.1042 6.92707 18.9792 6.60416 18.2813L5.20833 15.2083C3.31249 13.875 2.08333 11.7605 2.08333 9.37504C2.08333 5.34379 5.58333 2.08337 9.89583 2.08337C13.0417 2.08337 15.7604 3.82297 16.9792 6.32297C17.4479 7.25005 17.7083 8.28129 17.7083 9.37504Z" stroke="#032D4B" stroke-width="1.5" stroke-linecap="round" stroke-linejoin="round"/>
<path d="M22.9167 13.3958C22.9167 15.7812 21.6875 17.8958 19.7917 19.2291L18.3958 22.302C18.0729 22.9999 17.1354 23.1354 16.6458 22.5416L15.1042 20.6874C12.5833 20.6874 10.3333 19.5729 8.92709 17.8333L9.89584 16.6666C14.2083 16.6666 17.7083 13.4062 17.7083 9.37495C17.7083 8.2812 17.4479 7.24996 16.9792 6.32288C20.3854 7.10413 22.9167 9.9791 22.9167 13.3958Z" stroke="#032D4B" stroke-width="1.5" stroke-linecap="round" stroke-linejoin="round"/>
<path d="M7.29167 9.375H12.5" stroke="#032D4B" stroke-width="1.5" stroke-linecap="round" stroke-linejoin="round"/>
</svg>
