<svg width="20" height="20" viewBox="0 0 20 20" fill="none" xmlns="http://www.w3.org/2000/svg">
<path d="M10 12.0834C11.1506 12.0834 12.0834 11.1507 12.0834 10.0001C12.0834 8.84949 11.1506 7.91675 10 7.91675C8.84943 7.91675 7.91669 8.84949 7.91669 10.0001C7.91669 11.1507 8.84943 12.0834 10 12.0834Z" stroke="#F7AA05" stroke-width="1.5" stroke-miterlimit="10" stroke-linecap="round" stroke-linejoin="round"/>
<path d="M15.4167 7.91675V12.0834" stroke="#F7AA05" stroke-width="1.5" stroke-miterlimit="10" stroke-linecap="round" stroke-linejoin="round"/>
<path d="M4.16665 18.3334C6.0076 18.3334 7.49998 16.841 7.49998 15.0001C7.49998 13.1591 6.0076 11.6667 4.16665 11.6667C2.3257 11.6667 0.833313 13.1591 0.833313 15.0001C0.833313 16.841 2.3257 18.3334 4.16665 18.3334Z" stroke="#F7AA05" stroke-width="1.5" stroke-miterlimit="10" stroke-linecap="round" stroke-linejoin="round"/>
<path d="M4.37498 13.9585V14.7335C4.37498 15.0252 4.22499 15.3001 3.96665 15.4501L3.33331 15.8335" stroke="#F7AA05" stroke-width="1.5" stroke-miterlimit="10" stroke-linecap="round" stroke-linejoin="round"/>
<path d="M1.66669 12.6666V7.49992C1.66669 4.58325 3.33335 3.33325 5.83335 3.33325H14.1667C16.6667 3.33325 18.3334 4.58325 18.3334 7.49992V12.4999C18.3334 15.4166 16.6667 16.6666 14.1667 16.6666H7.08335" stroke="#F7AA05" stroke-width="1.5" stroke-miterlimit="10" stroke-linecap="round" stroke-linejoin="round"/>
</svg>
