<svg width="27" height="20" viewBox="0 0 27 20" fill="none" xmlns="http://www.w3.org/2000/svg">
<path d="M21.7082 0H5.00958C2.24763 0 0 2.24084 0 4.99445V19.4229C0 19.646 0.133589 19.8479 0.340652 19.9345C0.409672 19.9634 0.48426 19.9778 0.55662 19.9778C0.699115 19.9778 0.839383 19.9234 0.946254 19.8191L4.66559 16.1987L7.9875 19.5105C8.30255 19.8246 8.72224 19.9978 9.16865 19.9978H9.1731C9.62062 19.9978 10.0403 19.8213 10.3554 19.505L13.3867 16.4551L16.4515 19.5139C16.7776 19.8391 17.2051 20 17.6326 20C18.0601 20 18.4887 19.838 18.8149 19.5139L22.0867 16.2519L25.7248 19.798L25.8528 19.8835C26.0231 19.9989 26.2458 20.0078 26.425 19.9123C26.6064 19.8158 26.72 19.6271 26.72 19.4229V4.99445C26.72 2.24084 24.4724 0 21.7104 0H21.7082ZM21.7082 1.10988C23.1632 1.10988 24.4334 1.90899 25.1025 3.0899L21.8028 6.40954L18.3039 2.9212L20.1652 1.10988H21.7082ZM21.0191 7.19867L17.7528 10.4839L14.1471 6.9667L17.5057 3.697L21.018 7.19867H21.0191ZM18.5711 1.10988L17.5157 2.13762L16.4849 1.10988H18.5711ZM14.9107 1.10988L16.7186 2.91232L13.3511 6.1909L10.0359 2.95782L11.8894 1.11099L14.9107 1.10988ZM12.5562 6.96337L8.95713 10.4673L5.73208 7.24861L9.24992 3.7414L12.5562 6.96337ZM10.3153 1.10988L9.24101 2.18091L8.14335 1.10988H10.3164H10.3153ZM5.00847 1.10988H6.55142L8.45506 2.96559L4.94613 6.46393L1.5975 3.12209C2.2621 1.92453 3.54233 1.11099 5.00958 1.11099L5.00847 1.10988ZM1.11213 4.99445C1.11213 4.74917 1.13551 4.50832 1.17892 4.27525L4.15795 7.24861L1.11213 10.2852V4.99445ZM1.11213 18.1043V12.6582L3.8763 15.414L1.11213 18.1043ZM1.4962 11.4706L4.94501 8.03219L8.16117 11.242L4.67227 14.6382L1.49508 11.4717L1.4962 11.4706ZM9.56162 18.7236C9.45698 18.8291 9.31782 18.8868 9.16865 18.8868C9.02727 18.8757 8.87921 18.8302 8.77345 18.7248L5.46044 15.4229L8.94823 12.0277L12.5974 15.6693L9.56162 18.7236ZM13.3812 14.8801L9.74531 11.2508L13.3533 7.73807L16.9725 11.2664L13.3812 14.8801ZM18.0245 18.727C17.8085 18.9423 17.4545 18.9445 17.2363 18.727L14.1682 15.6648L17.7684 12.0422L21.2874 15.4728L18.0245 18.727ZM22.07 14.6937L18.5477 11.2586L21.805 7.98113L25.304 11.4695L22.07 14.6937ZM25.6034 18.1398L22.866 15.4695L25.6034 12.7403V18.1398ZM25.6034 10.1976L22.5888 7.19312L25.5288 4.23529C25.5778 4.48058 25.6034 4.73252 25.6034 4.99112V10.1976Z" fill="#D9D9DA"/>
<path fill-rule="evenodd" clip-rule="evenodd" d="M13.3599 4C10.0466 4 7.35986 6.68643 7.35986 10C7.35986 13.3136 10.0466 16 13.3599 16C16.6732 16 19.3599 13.3136 19.3599 10C19.3599 6.68643 16.6732 4 13.3599 4Z" fill="#7FCA8C" stroke="#7FCA8C" stroke-width="1.6" stroke-linecap="round" stroke-linejoin="round"/>
<path fill-rule="evenodd" clip-rule="evenodd" d="M11.719 12.5355L10.6992 9.38886L13.3666 7.44434L16.0345 9.38886L15.0158 12.5355H11.719Z" stroke="white" stroke-linecap="round" stroke-linejoin="round"/>
<path d="M15.6394 4.46655L13.3667 5.4362L11.0945 4.46655" stroke="white" stroke-linecap="round" stroke-linejoin="round"/>
<path d="M8.83273 6.1145L9.05108 8.58311L7.42847 10.4509" stroke="white" stroke-linecap="round" stroke-linejoin="round"/>
<path d="M8.29272 13.1191L10.6998 13.6735L11.9699 15.7985" stroke="white" stroke-linecap="round" stroke-linejoin="round"/>
<path d="M14.7654 15.7988L16.0345 13.6728L18.4408 13.1184" stroke="white" stroke-linecap="round" stroke-linejoin="round"/>
<path d="M19.306 10.4504L17.6821 8.58155L17.9002 6.1145" stroke="white" stroke-linecap="round" stroke-linejoin="round"/>
<path d="M13.3668 5.43604V7.44421" stroke="white" stroke-linecap="round" stroke-linejoin="round"/>
<path d="M16.0349 9.46692L17.6823 8.58179" stroke="white" stroke-linecap="round" stroke-linejoin="round"/>
<path d="M15.0161 12.5352L16.0348 13.6723" stroke="white" stroke-linecap="round" stroke-linejoin="round"/>
<path d="M11.7189 12.5352L10.6997 13.6733" stroke="white" stroke-linecap="round" stroke-linejoin="round"/>
<path d="M9.05127 8.58301L10.6994 9.38857" stroke="white" stroke-linecap="round" stroke-linejoin="round"/>
</svg>
