<svg width="25" height="25" viewBox="0 0 25 25" fill="none" xmlns="http://www.w3.org/2000/svg">
<path d="M12.5 15.625C14.2259 15.625 15.625 14.2259 15.625 12.5C15.625 10.7741 14.2259 9.375 12.5 9.375C10.7741 9.375 9.375 10.7741 9.375 12.5C9.375 14.2259 10.7741 15.625 12.5 15.625Z" stroke="#032D4B" stroke-width="1.5" stroke-miterlimit="10" stroke-linecap="round" stroke-linejoin="round"/>
<path d="M2.08333 13.4167V11.5834C2.08333 10.5 2.96875 9.6042 4.06249 9.6042C5.94791 9.6042 6.71874 8.27087 5.77083 6.63545C5.22916 5.69795 5.55208 4.4792 6.49999 3.93754L8.30208 2.90629C9.12499 2.4167 10.1875 2.70837 10.6771 3.53129L10.7917 3.7292C11.7292 5.36462 13.2708 5.36462 14.2187 3.7292L14.3333 3.53129C14.8229 2.70837 15.8854 2.4167 16.7083 2.90629L18.5104 3.93754C19.4583 4.4792 19.7812 5.69795 19.2396 6.63545C18.2917 8.27087 19.0625 9.6042 20.9479 9.6042C22.0312 9.6042 22.9271 10.4896 22.9271 11.5834V13.4167C22.9271 14.5 22.0417 15.3959 20.9479 15.3959C19.0625 15.3959 18.2917 16.7292 19.2396 18.3646C19.7812 19.3125 19.4583 20.5209 18.5104 21.0625L16.7083 22.0938C15.8854 22.5834 14.8229 22.2917 14.3333 21.4688L14.2187 21.2709C13.2812 19.6355 11.7396 19.6355 10.7917 21.2709L10.6771 21.4688C10.1875 22.2917 9.12499 22.5834 8.30208 22.0938L6.49999 21.0625C5.55208 20.5209 5.22916 19.3021 5.77083 18.3646C6.71874 16.7292 5.94791 15.3959 4.06249 15.3959C2.96875 15.3959 2.08333 14.5 2.08333 13.4167Z" stroke="#032D4B" stroke-width="1.5" stroke-miterlimit="10" stroke-linecap="round" stroke-linejoin="round"/>
</svg>
