<svg width="23" height="23" viewBox="0 0 23 23" fill="none" xmlns="http://www.w3.org/2000/svg">
<path d="M13.1577 3.36378L14.8444 6.73711C15.0744 7.2067 15.6877 7.65711 16.2052 7.74336L19.2623 8.25128C21.2173 8.57711 21.6773 9.99545 20.2685 11.3946L17.8919 13.7713C17.4894 14.1738 17.269 14.95 17.3935 15.5059L18.074 18.4479C18.6106 20.7767 17.3744 21.6775 15.314 20.4604L12.4485 18.7642C11.931 18.4575 11.0781 18.4575 10.551 18.7642L7.68562 20.4604C5.63479 21.6775 4.38896 20.7671 4.92562 18.4479L5.60604 15.5059C5.73062 14.95 5.51021 14.1738 5.10771 13.7713L2.73104 11.3946C1.33187 9.99545 1.78229 8.57711 3.73729 8.25128L6.79437 7.74336C7.30229 7.65711 7.91562 7.2067 8.14562 6.73711L9.83229 3.36378C10.7523 1.53336 12.2473 1.53336 13.1577 3.36378Z" stroke="white" stroke-width="1.5" stroke-linecap="round" stroke-linejoin="round"/>
</svg>
