<svg width="23" height="23" viewBox="0 0 23 23" fill="none" xmlns="http://www.w3.org/2000/svg">
<path d="M13.158 3.36375L14.8446 6.73708C15.0746 7.20667 15.688 7.65708 16.2055 7.74333L19.2625 8.25125C21.2175 8.57708 21.6775 9.99542 20.2688 11.3946L17.8921 13.7712C17.4896 14.1737 17.2692 14.95 17.3938 15.5058L18.0742 18.4479C18.6109 20.7767 17.3746 21.6775 15.3142 20.4604L12.4488 18.7642C11.9313 18.4575 11.0784 18.4575 10.5513 18.7642L7.68587 20.4604C5.63504 21.6775 4.3892 20.7671 4.92587 18.4479L5.60628 15.5058C5.73087 14.95 5.51045 14.1737 5.10795 13.7712L2.73128 11.3946C1.33212 9.99542 1.78254 8.57708 3.73754 8.25125L6.79462 7.74333C7.30253 7.65708 7.91587 7.20667 8.14587 6.73708L9.83254 3.36375C10.7525 1.53333 12.2475 1.53333 13.158 3.36375Z" stroke="#032D4B" stroke-width="1.5" stroke-linecap="round" stroke-linejoin="round"/>
</svg>
