<svg width="20" height="20" viewBox="0 0 20 20" fill="none" xmlns="http://www.w3.org/2000/svg">
<path fill-rule="evenodd" clip-rule="evenodd" d="M10 20C15.5228 20 20 15.5228 20 10C20 4.47715 15.5228 0 10 0C4.47715 0 0 4.47715 0 10C0 15.5228 4.47715 20 10 20Z" fill="white"/>
<path d="M12.7576 6.89352L11.7336 7.86574C11.6199 7.97377 11.563 8.10494 11.563 8.25926C11.563 8.41358 11.6199 8.54475 11.7336 8.65278C11.8474 8.7608 11.9856 8.81482 12.1481 8.81482H15.4149C15.5774 8.81482 15.7156 8.7608 15.8293 8.65278C15.9431 8.54475 16 8.41358 16 8.25926V5.15741C16 5.00309 15.9431 4.87191 15.8293 4.76389C15.7156 4.65586 15.5774 4.60185 15.4149 4.60185C15.2524 4.60185 15.1142 4.65586 15.0005 4.76389L14.1228 5.59722C13.5702 5.08796 12.9363 4.69444 12.2212 4.41667C11.5061 4.13889 10.7503 4 9.95395 4C8.97878 4 8.07269 4.20448 7.23567 4.61343C6.39865 5.02238 5.69571 5.58179 5.12686 6.29167C4.55801 7.00154 4.1842 7.7963 4.00542 8.67593C3.98916 8.75309 4.00948 8.82639 4.06637 8.89583C4.12325 8.96528 4.20045 9 4.29797 9H5.68758C5.76885 9 5.83386 8.98071 5.88262 8.94213C5.93138 8.90355 5.96388 8.85339 5.98014 8.79167C6.20767 7.92747 6.6912 7.22145 7.4307 6.67361C8.1702 6.12577 9.01129 5.85185 9.95395 5.85185C10.474 5.85185 10.9738 5.94059 11.4533 6.11806C11.9327 6.29552 12.3675 6.55401 12.7576 6.89352Z" fill="#F93131"/>
<path d="M4.5851 11.1852H7.85192C8.01445 11.1852 8.1526 11.2392 8.26637 11.3472C8.38014 11.4552 8.43702 11.5864 8.43702 11.7407C8.43702 11.8951 8.38014 12.0262 8.26637 12.1343L7.24244 13.1065C7.63251 13.446 8.06727 13.7045 8.54673 13.8819C9.02619 14.0594 9.52596 14.1481 10.046 14.1481C10.9887 14.1481 11.8298 13.8742 12.5693 13.3264C13.3088 12.7785 13.7923 12.0725 14.0199 11.2083C14.0361 11.1466 14.0686 11.0965 14.1174 11.0579C14.1661 11.0193 14.2312 11 14.3124 11H15.702C15.7995 11 15.8767 11.0347 15.9336 11.1042C15.9905 11.1736 16.0108 11.2469 15.9946 11.3241C15.8158 12.2037 15.442 12.9985 14.8731 13.7083C14.3043 14.4182 13.6014 14.9776 12.7643 15.3866C11.9273 15.7955 11.0212 16 10.046 16C9.24966 16 8.49391 15.8611 7.77878 15.5833C7.06366 15.3056 6.4298 14.912 5.8772 14.4028L4.99955 15.2361C4.88578 15.3441 4.74763 15.3981 4.5851 15.3981C4.42257 15.3981 4.28442 15.3441 4.17065 15.2361C4.05688 15.1281 4 14.9969 4 14.8426V11.7407C4 11.5864 4.05688 11.4552 4.17065 11.3472C4.28442 11.2392 4.42257 11.1852 4.5851 11.1852Z" fill="#057008"/>
</svg>
