<svg width="52" height="52" viewBox="0 0 52 52" fill="none" xmlns="http://www.w3.org/2000/svg">
<g filter="url(#filter0_d_274_1079)">
<path fill-rule="evenodd" clip-rule="evenodd" d="M26 34C31.5228 34 36 29.5228 36 24C36 18.4772 31.5228 14 26 14C20.4772 14 16 18.4772 16 24C16 29.5228 20.4772 34 26 34Z" fill="white"/>
</g>
<path d="M28.7576 20.8935L27.7336 21.8657C27.6199 21.9738 27.563 22.1049 27.563 22.2593C27.563 22.4136 27.6199 22.5448 27.7336 22.6528C27.8474 22.7608 27.9856 22.8148 28.1481 22.8148H31.4149C31.5774 22.8148 31.7156 22.7608 31.8293 22.6528C31.9431 22.5448 32 22.4136 32 22.2593V19.1574C32 19.0031 31.9431 18.8719 31.8293 18.7639C31.7156 18.6559 31.5774 18.6019 31.4149 18.6019C31.2524 18.6019 31.1142 18.6559 31.0005 18.7639L30.1228 19.5972C29.5702 19.088 28.9363 18.6944 28.2212 18.4167C27.5061 18.1389 26.7503 18 25.954 18C24.9788 18 24.0727 18.2045 23.2357 18.6134C22.3986 19.0224 21.6957 19.5818 21.1269 20.2917C20.558 21.0015 20.1842 21.7963 20.0054 22.6759C19.9892 22.7531 20.0095 22.8264 20.0664 22.8958C20.1233 22.9653 20.2005 23 20.298 23H21.6876C21.7688 23 21.8339 22.9807 21.8826 22.9421C21.9314 22.9035 21.9639 22.8534 21.9801 22.7917C22.2077 21.9275 22.6912 21.2215 23.4307 20.6736C24.1702 20.1258 25.0113 19.8519 25.954 19.8519C26.474 19.8519 26.9738 19.9406 27.4533 20.1181C27.9327 20.2955 28.3675 20.554 28.7576 20.8935Z" fill="#F93131"/>
<path d="M20.5851 25.1852H23.8519C24.0144 25.1852 24.1526 25.2392 24.2664 25.3472C24.3801 25.4552 24.437 25.5864 24.437 25.7407C24.437 25.8951 24.3801 26.0262 24.2664 26.1343L23.2424 27.1065C23.6325 27.446 24.0673 27.7045 24.5467 27.8819C25.0262 28.0594 25.526 28.1481 26.046 28.1481C26.9887 28.1481 27.8298 27.8742 28.5693 27.3264C29.3088 26.7785 29.7923 26.0725 30.0199 25.2083C30.0361 25.1466 30.0686 25.0965 30.1174 25.0579C30.1661 25.0193 30.2312 25 30.3124 25H31.702C31.7995 25 31.8767 25.0347 31.9336 25.1042C31.9905 25.1736 32.0108 25.2469 31.9946 25.3241C31.8158 26.2037 31.442 26.9985 30.8731 27.7083C30.3043 28.4182 29.6014 28.9776 28.7643 29.3866C27.9273 29.7955 27.0212 30 26.046 30C25.2497 30 24.4939 29.8611 23.7788 29.5833C23.0637 29.3056 22.4298 28.912 21.8772 28.4028L20.9995 29.2361C20.8858 29.3441 20.7476 29.3981 20.5851 29.3981C20.4226 29.3981 20.2844 29.3441 20.1707 29.2361C20.0569 29.1281 20 28.9969 20 28.8426V25.7407C20 25.5864 20.0569 25.4552 20.1707 25.3472C20.2844 25.2392 20.4226 25.1852 20.5851 25.1852Z" fill="#057008"/>
<defs>
<filter id="filter0_d_274_1079" x="0" y="0" width="52" height="52" filterUnits="userSpaceOnUse" color-interpolation-filters="sRGB">
<feFlood flood-opacity="0" result="BackgroundImageFix"/>
<feColorMatrix in="SourceAlpha" type="matrix" values="0 0 0 0 0 0 0 0 0 0 0 0 0 0 0 0 0 0 127 0" result="hardAlpha"/>
<feOffset dy="2"/>
<feGaussianBlur stdDeviation="8"/>
<feColorMatrix type="matrix" values="0 0 0 0 0.293333 0 0 0 0 0.333211 0 0 0 0 0.431373 0 0 0 0.2 0"/>
<feBlend mode="normal" in2="BackgroundImageFix" result="effect1_dropShadow_274_1079"/>
<feBlend mode="normal" in="SourceGraphic" in2="effect1_dropShadow_274_1079" result="shape"/>
</filter>
</defs>
</svg>
