<svg width="20" height="20" viewBox="0 0 20 20" fill="none" xmlns="http://www.w3.org/2000/svg">
<path d="M14.1626 3.33333H5.82923C2.63756 3.33333 1.7459 4.09999 1.6709 7.08333C3.27923 7.08333 4.57923 8.39166 4.57923 9.99999C4.57923 11.6083 3.27923 12.9083 1.6709 12.9167C1.7459 15.9 2.63756 16.6667 5.82923 16.6667H14.1626C17.4959 16.6667 18.3292 15.8333 18.3292 12.5V7.49999C18.3292 4.16666 17.4959 3.33333 14.1626 3.33333Z" stroke="#032D4B" stroke-width="1.5" stroke-linecap="round" stroke-linejoin="round"/>
<path d="M7.49438 3.33333V6.25" stroke="#032D4B" stroke-width="1.5" stroke-linecap="round" stroke-linejoin="round"/>
<path d="M7.49438 13.75V16.6667" stroke="#032D4B" stroke-width="1.5" stroke-linecap="round" stroke-linejoin="round"/>
<path d="M12.5208 7.775L13.0374 8.81667C13.0874 8.91667 13.1874 8.99167 13.2958 9.00834L14.4458 9.175C14.7291 9.21667 14.8458 9.56667 14.6374 9.76667L13.8041 10.575C13.7208 10.65 13.6874 10.7667 13.7041 10.8833L13.9041 12.025C13.9541 12.3083 13.6541 12.525 13.4041 12.3917L12.3791 11.85C12.2791 11.8 12.1541 11.8 12.0541 11.85L11.0291 12.3917C10.7708 12.525 10.4791 12.3083 10.5291 12.025L10.7291 10.8833C10.7458 10.7667 10.7124 10.6583 10.6291 10.575L9.8041 9.76667C9.59577 9.56667 9.71243 9.21667 9.99577 9.175L11.1458 9.00834C11.2624 8.99167 11.3541 8.925 11.4041 8.81667L11.9124 7.775C12.0291 7.51667 12.3958 7.51667 12.5208 7.775Z" stroke="#032D4B" stroke-width="1.5" stroke-linecap="round" stroke-linejoin="round"/>
</svg>
