<svg width="26" height="20" viewBox="0 0 26 20" fill="none" xmlns="http://www.w3.org/2000/svg">
<path d="M20 0H5.26524C2.35875 0.00493462 0.00493462 2.35875 0 5.26524V11.5815C0.00493462 14.488 2.35875 16.8418 5.26524 16.8468H11.5815V17.8979H8.42339C7.84111 17.8979 7.37232 18.3716 7.37232 18.9489C7.37232 19.5312 7.84604 20 8.42339 20H16.8468C17.4291 20 17.8979 19.5263 17.8979 18.9489C17.8979 18.3666 17.4241 17.8979 16.8468 17.8979H13.6886V16.8468H20.0049C22.9114 16.8418 25.2652 14.488 25.2702 11.5815V5.26524C25.2603 2.35875 22.9065 0.00493462 20 0ZM23.1582 11.5815C23.1582 13.3235 21.7419 14.7397 20 14.7397H5.26524C3.52332 14.7397 2.10708 13.3235 2.10708 11.5815V5.26524C2.10708 3.52332 3.52332 2.10708 5.26524 2.10708H20.0049C21.7469 2.10708 23.1631 3.52332 23.1631 5.26524V11.5815H23.1582Z" fill="#032D4B"/>
<path d="M4.69288 4.95435L6.36571 10.2097H6.42986L8.1027 4.95435H9.72125L7.33783 11.8677H5.45281L3.06445 4.95435H4.69288Z" fill="#032D4B"/>
<path d="M10.8265 11.8677H9.25732L11.6457 4.95435H13.5307L15.9141 11.8677H14.3449L12.6129 6.53342H12.5586L10.8265 11.8677ZM10.7278 9.1537H14.4288V10.2936H10.7278V9.1537Z" fill="#032D4B"/>
<path d="M16.7432 11.8677V4.95435H19.472C19.9951 4.95435 20.4392 5.0481 20.8093 5.23068C21.1794 5.4182 21.4607 5.67973 21.658 6.01529C21.8505 6.35578 21.9492 6.75055 21.9492 7.20947C21.9492 7.66839 21.8505 8.06315 21.6531 8.39377C21.4557 8.72439 21.1695 8.97606 20.7945 9.1537C20.4195 9.33135 19.9655 9.41524 19.4375 9.41524H17.6117V8.2408H19.2006C19.4819 8.2408 19.7138 8.20132 19.8964 8.1273C20.079 8.04835 20.2171 7.93485 20.3109 7.78188C20.3997 7.62891 20.4491 7.43646 20.4491 7.20947C20.4491 6.97754 20.4047 6.78509 20.3109 6.62718C20.2221 6.46927 20.079 6.35084 19.8964 6.26695C19.7089 6.18307 19.4769 6.14359 19.1957 6.14359H18.2087V11.8628H16.7432V11.8677ZM20.4787 8.72439L22.1959 11.8727H20.5823L18.8996 8.72439H20.4787Z" fill="#032D4B"/>
</svg>
