<svg width="20" height="20" viewBox="0 0 20 20" fill="none" xmlns="http://www.w3.org/2000/svg">
<path d="M18.3333 12.5001V7.50008C18.3333 3.33341 16.6667 1.66675 12.5 1.66675H7.49999C3.33332 1.66675 1.66666 3.33341 1.66666 7.50008V12.5001C1.66666 16.6667 3.33332 18.3334 7.49999 18.3334H12.5C16.6667 18.3334 18.3333 16.6667 18.3333 12.5001Z" stroke="#032D4B" stroke-width="1.5" stroke-linecap="round" stroke-linejoin="round"/>
<path d="M2.10001 5.92505H17.9" stroke="#032D4B" stroke-width="1.5" stroke-linecap="round" stroke-linejoin="round"/>
<path d="M7.10001 1.7583V5.8083" stroke="#032D4B" stroke-width="1.5" stroke-linecap="round" stroke-linejoin="round"/>
<path d="M12.9 1.7583V5.4333" stroke="#032D4B" stroke-width="1.5" stroke-linecap="round" stroke-linejoin="round"/>
<path d="M8.125 12.0416V11.0416C8.125 9.75827 9.03333 9.23327 10.1417 9.87493L11.0083 10.3749L11.875 10.8749C12.9833 11.5166 12.9833 12.5666 11.875 13.2083L11.0083 13.7083L10.1417 14.2083C9.03333 14.8499 8.125 14.3249 8.125 13.0416V12.0416V12.0416Z" stroke="#032D4B" stroke-width="1.5" stroke-miterlimit="10" stroke-linecap="round" stroke-linejoin="round"/>
</svg>
