<svg width="25" height="25" viewBox="0 0 25 25" fill="none" xmlns="http://www.w3.org/2000/svg">
<path d="M17.7084 13.9584V17.0834C17.7084 21.2501 16.0417 22.9167 11.875 22.9167H7.91671C3.75004 22.9167 2.08337 21.2501 2.08337 17.0834V13.1251C2.08337 8.95842 3.75004 7.29175 7.91671 7.29175H11.0417" stroke="#032D4B" stroke-width="1.5" stroke-linecap="round" stroke-linejoin="round"/>
<path d="M17.7083 13.9584H14.375C11.875 13.9584 11.0416 13.1251 11.0416 10.6251V7.29175L17.7083 13.9584Z" stroke="#032D4B" stroke-width="1.5" stroke-linecap="round" stroke-linejoin="round"/>
<path d="M12.0834 2.08325H16.25" stroke="#032D4B" stroke-width="1.5" stroke-linecap="round" stroke-linejoin="round"/>
<path d="M7.29163 5.20825C7.29163 3.47909 8.68746 2.08325 10.4166 2.08325H13.1458" stroke="#032D4B" stroke-width="1.5" stroke-linecap="round" stroke-linejoin="round"/>
<path d="M22.9167 8.33325V14.7812C22.9167 16.3958 21.6042 17.7083 19.9896 17.7083" stroke="#032D4B" stroke-width="1.5" stroke-linecap="round" stroke-linejoin="round"/>
<path d="M22.9166 8.33325H19.7916C17.4479 8.33325 16.6666 7.552 16.6666 5.20825V2.08325L22.9166 8.33325Z" stroke="#032D4B" stroke-width="1.5" stroke-linecap="round" stroke-linejoin="round"/>
</svg>
