<svg width="25" height="25" viewBox="0 0 25 25" fill="none" xmlns="http://www.w3.org/2000/svg">
<path d="M11.1995 17.5629V19.6775C11.1995 21.4691 9.53285 22.917 7.48077 22.917C5.42869 22.917 3.75159 21.4691 3.75159 19.6775V17.5629C3.75159 19.3545 5.41827 20.6254 7.48077 20.6254C9.53285 20.6254 11.1995 19.3441 11.1995 17.5629Z" stroke="#032D4B" stroke-width="1.5" stroke-linecap="round" stroke-linejoin="round"/>
<path d="M11.1979 14.6979C11.1979 15.2187 11.0521 15.6979 10.8021 16.1145C10.1875 17.125 8.92708 17.7604 7.46874 17.7604C6.01041 17.7604 4.74998 17.1145 4.1354 16.1145C3.8854 15.6979 3.73962 15.2187 3.73962 14.6979C3.73962 13.8021 4.15627 13 4.82293 12.4166C5.50002 11.8229 6.42707 11.4688 7.45832 11.4688C8.48957 11.4688 9.41668 11.8333 10.0938 12.4166C10.7813 12.9896 11.1979 13.8021 11.1979 14.6979Z" stroke="#032D4B" stroke-width="1.5" stroke-linecap="round" stroke-linejoin="round"/>
<path d="M11.1995 14.6979V17.5625C11.1995 19.3542 9.53285 20.625 7.48077 20.625C5.42869 20.625 3.75159 19.3438 3.75159 17.5625V14.6979C3.75159 12.9063 5.41827 11.4584 7.48077 11.4584C8.51202 11.4584 9.43914 11.8229 10.1162 12.4063C10.7829 12.9896 11.1995 13.8021 11.1995 14.6979Z" stroke="#032D4B" stroke-width="1.5" stroke-linecap="round" stroke-linejoin="round"/>
<path d="M22.9167 11.4271V13.573C22.9167 14.1459 22.4584 14.6146 21.875 14.6354H19.8333C18.7083 14.6354 17.6771 13.8125 17.5834 12.6875C17.5209 12.0313 17.7708 11.4167 18.2083 10.9896C18.5937 10.5938 19.125 10.3646 19.7083 10.3646H21.875C22.4584 10.3855 22.9167 10.8542 22.9167 11.4271Z" stroke="#032D4B" stroke-width="1.5" stroke-linecap="round" stroke-linejoin="round"/>
<path d="M2.08337 10.9375V8.85421C2.08337 6.02087 3.79171 4.0417 6.44796 3.70837C6.71879 3.6667 7.00004 3.64587 7.29171 3.64587H16.6667C16.9375 3.64587 17.198 3.65628 17.448 3.69794C20.1355 4.01044 21.875 6.00004 21.875 8.85421V10.3646H19.7084C19.125 10.3646 18.5938 10.5938 18.2084 10.9896C17.7709 11.4167 17.5209 12.0313 17.5834 12.6875C17.6771 13.8125 18.7084 14.6354 19.8334 14.6354H21.875V16.1459C21.875 19.2709 19.7917 21.3542 16.6667 21.3542H14.0625" stroke="#032D4B" stroke-width="1.5" stroke-linecap="round" stroke-linejoin="round"/>
</svg>
