<svg width="17" height="20" viewBox="0 0 17 20" fill="none" xmlns="http://www.w3.org/2000/svg">
<rect x="3" width="14" height="20" rx="2" fill="white"/>
<rect x="4" y="1" width="12" height="18" rx="2" fill="#FED50D"/>
<rect width="14" height="20" rx="2" fill="white"/>
<rect x="1" y="1" width="12" height="18" rx="2" fill="#CC0000"/>
<path d="M6.61719 8.63068V4.78977H7.38139V8.63068H6.61719ZM5.08026 7.09091V6.3267H8.92116V7.09091H5.08026ZM5.10653 16V15.3636L7.07528 13.3239C7.28551 13.1023 7.45881 12.9081 7.59517 12.7415C7.73343 12.5729 7.83665 12.4129 7.90483 12.2614C7.97301 12.1098 8.0071 11.9489 8.0071 11.7784C8.0071 11.5852 7.96165 11.4186 7.87074 11.2784C7.77983 11.1364 7.65578 11.0275 7.49858 10.9517C7.34138 10.8741 7.1643 10.8352 6.96733 10.8352C6.759 10.8352 6.57718 10.8778 6.42188 10.9631C6.26657 11.0483 6.14725 11.1686 6.06392 11.3239C5.98059 11.4792 5.93892 11.661 5.93892 11.8693H5.10085C5.10085 11.5152 5.18229 11.2055 5.34517 10.9403C5.50805 10.6752 5.73153 10.4697 6.01562 10.3239C6.29972 10.1761 6.62263 10.1023 6.98438 10.1023C7.34991 10.1023 7.67188 10.1752 7.95028 10.321C8.23059 10.465 8.44934 10.6619 8.60653 10.9119C8.76373 11.16 8.84233 11.4403 8.84233 11.7528C8.84233 11.9688 8.80161 12.1799 8.72017 12.3864C8.64063 12.5928 8.50142 12.8229 8.30256 13.0767C8.10369 13.3286 7.82718 13.6345 7.47301 13.9943L6.31676 15.2045V15.2472H8.93608V16H5.10653Z" fill="white"/>
</svg>
